<?xml version="1.0" standalone="no"?>
<!DOCTYPE svg PUBLIC "-//W3C//DTD SVG 1.1//EN" "http://www.w3.org/Graphics/SVG/1.1/DTD/svg11.dtd" >
<svg xmlns="http://www.w3.org/2000/svg">
<metadata></metadata>
<defs>
<font id="chau_philomene_oneregular" horiz-adv-x="890" >
<font-face units-per-em="2048" ascent="1638" descent="-410" />
<missing-glyph horiz-adv-x="544" />
<glyph unicode="&#xfb01;" horiz-adv-x="1064" d="M8 889q0 88 31 94l164 33q0 330 87 443.5t337 113.5q139 0 303 -49q53 -16 59 -21h2q18 -10 18.5 -35.5t-11 -70.5t-27 -72t-35.5 -16q-115 57 -334 57q-78 0 -102.5 -78t-24.5 -272h293q238 0 238 -80v-936q0 -12 -2 -16q-10 -16 -78 -16.5t-133.5 10t-65.5 22.5v852 h-235v-1311q0 -12 -5 -16q-8 -16 -76.5 -16.5t-138 10t-69.5 22.5v1311h-164q-25 0 -28 11t-3 26z" />
<glyph unicode="&#xfb02;" horiz-adv-x="1099" d="M8 889q0 88 31 94l164 33q0 330 87 443.5t337 113.5q59 0 218 -21.5t161 -42.5l36 -626v-883q0 -12 -2 -16q-10 -16 -77.5 -16.5t-132 10t-64.5 22.5v1356q-74 10 -158 10t-108.5 -78t-24.5 -272h197q33 0 33 -82t-33 -82h-180v-1311q0 -12 -5 -16q-8 -16 -76.5 -16.5 t-138 10t-69.5 22.5v1311h-164q-25 0 -28 11t-3 26z" />
<glyph horiz-adv-x="2048" />
<glyph horiz-adv-x="2048" />
<glyph unicode="&#xd;" horiz-adv-x="681" />
<glyph unicode=" "  horiz-adv-x="544" />
<glyph unicode="&#x09;" horiz-adv-x="544" />
<glyph unicode="&#xa0;" horiz-adv-x="544" />
<glyph unicode="!" horiz-adv-x="505" d="M47 114.5q0 147.5 147.5 147.5t147.5 -147.5t-147.5 -147.5t-147.5 147.5zM96 461l33 629l66 450l237 -27l33 -32l-133 -1075l-203 22z" />
<glyph unicode="&#x22;" horiz-adv-x="661" d="M82 1454l37 86h119l36 -86l-10 -274l-59 -109h-53l-60 109zM387 1454l37 86h119l37 -86l-11 -274l-59 -109h-53l-60 109z" />
<glyph unicode="#" horiz-adv-x="1480" d="M53 295v221h236l59 246h-149l-33 33v221h246l112 459h228l32 -33l-100 -426h248l112 459h224l32 -33l-96 -426h203l33 -33v-221h-293l-57 -246h204l33 -33v-221h-295l-129 -561h-254l-33 33l129 528h-233l-129 -561h-256l-33 33l131 528h-139zM569 516h240l59 246h-241z " />
<glyph unicode="$" horiz-adv-x="804" d="M35 407.5q0 8.5 3 20.5t48 66.5t72 54.5q8 0 16 -8q109 -86 211 -86q57 0 86 32.5t29 71.5t-33 63.5t-81 48t-52 25.5t-11.5 6.5t-13.5 6.5q-104 51 -177 127.5t-73 171.5q0 135 57.5 207.5t178.5 93.5l4 264h227l33 -33v-242q72 -20 111 -49h2q16 -10 19 -24.5t-3 -61.5 q-20 -119 -49 -119q-6 0 -12 5l-78 38q-88 35 -152 35q-92 -4 -92 -88q0 -33 36 -53t58.5 -31.5t67.5 -31.5q152 -66 226.5 -146t74.5 -158q0 -127 -52 -219t-149 -133l2 -264h-254l-32 33v219q-150 29 -240 145q-8 4 -8 12.5z" />
<glyph unicode="%" horiz-adv-x="1429" d="M49 1102q0 174 58.5 242.5t187.5 68.5t187.5 -68.5t58.5 -242.5t-58.5 -242.5t-187.5 -68.5t-187.5 68.5t-58.5 242.5zM219 1102q0 -141 76 -141q31 0 53.5 46t22.5 117.5t-13.5 95t-54.5 23.5t-62.5 -41t-21.5 -100zM367 33l467 1442h208l33 -33l-452 -1442h-224z M885 344q0 174 58 242.5t187.5 68.5t187.5 -68.5t58 -242.5t-58 -242.5t-187.5 -68.5t-187.5 68.5t-58 242.5zM1055 344q0 -141 75 -141q31 0 53.5 46t22.5 117.5t-13 95t-54 23.5t-62.5 -41t-21.5 -100z" />
<glyph unicode="&#x26;" horiz-adv-x="1591" d="M45 508q0 168 19.5 270.5t70.5 164t129 84t207 22.5h985q98 0 98 -64q0 -70 -20.5 -106.5t-77.5 -36.5h-262l2 -1299v-2q0 -12 -4 -16q-8 -16 -76.5 -16.5t-141.5 10t-73 22.5v33l2 1268h-452q-66 0 -93.5 -48.5t-31.5 -164.5h297q35 0 42 -18.5t7 -41.5q0 -147 -43 -147 h-305q6 -152 36.5 -203t97 -51t153.5 13.5t94 11.5q20 -6 20 -71t-6 -92.5t-25 -33.5q-98 -29 -219 -29q-248 0 -339 116t-91 425z" />
<glyph unicode="'" horiz-adv-x="331" d="M70 1454l36 86h119l37 -86l-10 -274l-59 -109h-54l-59 109z" />
<glyph unicode="(" horiz-adv-x="702" d="M53 727q0 506 120 745.5t417 239.5l4 -276q-102 0 -148 -103q-51 -115 -59 -231.5t-10 -190t-2 -184.5t1 -177.5t4 -154.5t10 -140t19.5 -113.5t31 -95.5t42.5 -64q50 -58 142 -58v-284h-2q-569 0 -570 1087z" />
<glyph unicode=")" horiz-adv-x="700" d="M76 -76q92 0 141 58q55 68 70.5 144.5t22.5 128.5t10.5 140t4.5 154.5t1 177.5t-2 184.5t-8.5 163.5t-21.5 147.5t-40 110.5q-45 102 -148 103l5 276q297 0 416.5 -239.5t119.5 -745.5q0 -1087 -569 -1087h-2v284z" />
<glyph unicode="*" horiz-adv-x="937" d="M51 852l115 188l47 13l131 -76v186h219l35 -35v-153l158 92l112 -186l-12 -47l-133 -76l164 -94l-117 -203l-31 -4l-141 80v-187h-221l-33 33v156l-162 -95l-114 199l4 31l145 82z" />
<glyph unicode="+" horiz-adv-x="874" d="M31 664v221h278v276l219 2l35 -35v-243h248l33 -33v-221h-281v-281h-221l-33 33v248h-246z" />
<glyph unicode="," horiz-adv-x="403" d="M80 -86l37 92q-35 35 -35 109q0 147 147.5 147t147.5 -147q0 -80 -39 -115l-205 -262l-53 35v141z" />
<glyph unicode="-" horiz-adv-x="784" d="M92 664v221h565l33 -33v-221h-565z" />
<glyph unicode="." horiz-adv-x="438" d="M72 114.5q0 147.5 147.5 147.5t147.5 -147.5t-147.5 -147.5t-147.5 147.5z" />
<glyph unicode="/" horiz-adv-x="806" d="M16 -266l514 2060h226l32 -33l-485 -2060h-254z" />
<glyph unicode="0" horiz-adv-x="1064" d="M76 725q0 414 57 584t219 211q72 20 180 20q182 0 276.5 -61.5t137.5 -227.5t43 -491q0 -449 -97 -621t-358.5 -172t-359.5 172t-98 586zM369 725q0 -160 9 -266.5t24.5 -141t41.5 -34.5q68 0 104 3t69.5 22.5t47 44t23.5 85.5q14 86 14 303t-9 323.5t-25.5 142.5 t-44.5 36q-66 0 -104 -4t-69.5 -25.5t-45 -46t-22.5 -89t-11 -129t-2 -224.5z" />
<glyph unicode="1" horiz-adv-x="864" d="M68 1413l481 127l33 -33l32 -622l2 -631h166l33 -33v-221h-694l-33 33v221h234v952l-183 -37z" />
<glyph unicode="2" horiz-adv-x="972" d="M80 0v254q311 444 396 593t85 288l2 82q0 39 -8 47t-20 14q-20 10 -62.5 10t-67 -1t-40 -2t-31 -4t-21.5 -5q-31 -10 -47 -14h-100l-57 206q111 72 337 72q141 0 223.5 -19.5t123.5 -74.5t52 -122t11 -131.5t1 -95t0 -39.5t-5 -43t-11 -55.5t-22.5 -65.5t-37 -83 t-54.5 -98.5t-76 -122.5q-129 -199 -223 -322h430l33 -32v-236h-811z" />
<glyph unicode="3" horiz-adv-x="991" d="M80 1468q111 72 338 72q283 0 377 -106q49 -55 67.5 -131t18.5 -195q0 -186 -86 -299q127 -104 127 -375q0 -109 -21.5 -187.5t-77.5 -144.5q-111 -135 -426 -135q-94 0 -284 21v254q197 -12 311.5 -12.5t148 37.5t33.5 169v99q0 51 -6 59t-15.5 21.5t-21.5 15.5t-33 8 q-29 6 -106 6h-148v262q137 0 187.5 12.5t64.5 34.5q37 49 37 156q0 178 -80 178q-158 0 -247 -26h-101z" />
<glyph unicode="4" horiz-adv-x="1001" d="M41 664l2 876h223l33 -33l33 -622h198l2 655h228l33 -33l32 -622h86l33 -33v-221h-119v-631h-262l-33 33v598h-456z" />
<glyph unicode="5" horiz-adv-x="905" d="M90 709v831h666l32 -33v-221h-448l35 -356q20 -2 68.5 -5t71 -5t59 -7.5t57.5 -11.5q53 -12 80 -35q127 -104 127 -403q0 -496 -557 -496q-41 0 -87.5 7.5t-99.5 13.5v254q197 -12 201 -13q147 0 187 48.5t40 156t-4 141t-26.5 61.5t-63.5 34t-121 6h-184z" />
<glyph unicode="6" horiz-adv-x="931" d="M68 512q0 162 38.5 367.5t77.5 338t111 355.5l248 -62l32 -32l-40 -97q-84 -166 -107 -350l49 21q162 0 247 -43t124 -159t39 -339q0 -307 -88 -426t-321.5 -119t-321.5 119t-88 426zM346 512q0 -344 66 -344q90 0 133 29q23 16 30 59q16 86 17 256q0 344 -66 344 q-123 0 -151.5 -57.5t-28.5 -286.5z" />
<glyph unicode="7" horiz-adv-x="915" d="M74 33l536 1253h-452l-33 33v221h731l31 -33v-219l-139 -403l-381 -885h-261z" />
<glyph unicode="8" horiz-adv-x="997" d="M66 455q0 96 51 195.5t137 168.5q-63 68 -103 157t-40 175q0 184 95 305t283 121q397 0 398 -426q0 -178 -146 -332q86 -68 138.5 -168t52.5 -196q0 -223 -106.5 -355.5t-327.5 -132.5q-432 0 -432 488zM348 416q0 -84 38 -151.5t112.5 -67.5t112.5 67.5t38 151.5 t-37 138t-114 120q-78 -66 -114 -120t-36 -138zM385 1182q0 -139 113 -234q117 94 116 234q0 90 -33.5 141t-81.5 51t-81 -51t-33 -141z" />
<glyph unicode="9" horiz-adv-x="929" d="M49 1020q0 309 89 433t320.5 124t320.5 -124t89 -433q0 -168 -34.5 -331t-69.5 -254t-102.5 -238.5t-88.5 -196.5l-32 -33l-189 66l-33 33q2 4 45.5 87t65.5 128q70 150 78 219l-49 -21q-162 0 -247 43t-124 159t-39 339zM348 1020q0 -309 64 -309q119 0 146.5 51 t27.5 258q0 322 -64 321q-117 0 -145.5 -53t-28.5 -268z" />
<glyph unicode=":" horiz-adv-x="452" d="M78 114.5q0 147.5 147.5 147.5t147.5 -147.5t-147.5 -147.5t-147.5 147.5zM78 901.5q0 147.5 147.5 147.5t147.5 -147.5t-147.5 -147.5t-147.5 147.5z" />
<glyph unicode=";" horiz-adv-x="421" d="M84 -86l37 92q-35 35 -35 109q0 147 147.5 147t147.5 -147q0 -80 -39 -115l-205 -262l-53 35v141zM90 901.5q0 147.5 147.5 147.5t147.5 -147.5t-147.5 -147.5t-147.5 147.5z" />
<glyph unicode="&#x3c;" horiz-adv-x="811" d="M18 778l41 101l414 602l111 26l131 -80l-396 -649l429 -616l-132 -80l-110 27l-447 569z" />
<glyph unicode="=" horiz-adv-x="897" d="M92 381v254h680l33 -33v-186l-35 -35h-678zM92 885v254h680l33 -33v-186l-35 -35h-678z" />
<glyph unicode="&#x3e;" horiz-adv-x="811" d="M63 162l429 616l-396 649l131 80l111 -26l414 -602l41 -101l-41 -100l-447 -569l-110 -27z" />
<glyph unicode="?" horiz-adv-x="897" d="M47 1468q111 72 360.5 72t351 -103.5t101.5 -336.5q0 -57 -12 -96q-27 -90 -309 -408v-182h-246l-33 32v162q0 53 88 146q137 141 177 203.5t40 154.5t-23.5 134t-109.5 42q-137 0 -227 -26h-101zM254 114.5q0 147.5 147.5 147.5t147.5 -147.5t-147.5 -147.5 t-147.5 147.5z" />
<glyph unicode="@" horiz-adv-x="1226" d="M76 717q0 330 48 494.5t161.5 229t341.5 64.5q256 -4 381 -125q106 -106 131 -405q10 -125 10 -324v-123h-342q-86 0 -141.5 60.5t-55.5 168t52.5 167t134.5 63.5q-20 260 -174 260q-80 0 -123 -43q-45 -45 -57.5 -94t-16.5 -78q-10 -55 -10 -155l2 -158 q0 -236 14 -342.5t51 -149.5t132.5 -43t308.5 64.5t221 64.5v-258q-16 -2 -113 -35q-274 -96 -420 -96q-305 0 -420.5 172t-115.5 621z" />
<glyph unicode="A" horiz-adv-x="1103" d="M57 30.5q0 8.5 43 270.5t105.5 624.5t82 475t21.5 127.5q8 47 301 47q141 0 154 -64l139 -628l141 -838q5 -23 5 -39q-1 -18 -11 -28q-10 -12 -69 -11q-182 0 -195 78l-72 422h-286l-64 -424q-6 -43 -15 -57.5t-25.5 -16.5t-53.5 -2h-57q-72 0 -90 8q-45 16 -52 37 q-2 10 -2 18.5zM455 715h202l-108 592z" />
<glyph unicode="B" horiz-adv-x="1146" d="M92 0v1540q213 33 387 33q313 0 434 -103.5t121 -325.5t-88 -335q129 -106 129 -358q0 -483 -555 -484q-66 0 -428 33zM381 254q0 -23 27.5 -27t152.5 -4t165 45t40 184.5t-30.5 168t-158.5 28.5t-162 -4t-34 -24v-367zM381 936q0 -25 8 -29q15 -4 29 -4q178 0 242.5 43 t64.5 191q0 84 -36 138t-77 54q-174 0 -211 -22q-12 -8 -20 -25v-346z" />
<glyph unicode="C" horiz-adv-x="1019" d="M72 760q0 328 50 501t161.5 242.5t334 69.5t324.5 -70q21 -14 21 -36q1 -21 -19 -75q-20 -56 -37.5 -80t-36 -24t-28.5 2q-154 31 -265.5 31t-145.5 -123t-34 -398.5t14.5 -384t53.5 -151.5t124 -43t192.5 10.5t111.5 10.5q51 0 51 -65.5t-2 -98.5q-8 -74 -65 -84 q-182 -27 -271 -27q-305 0 -419.5 172t-114.5 621z" />
<glyph unicode="D" horiz-adv-x="1169" d="M92 0v1538q312 35 449 35q223 0 337.5 -63.5t166 -230.5t51.5 -495q0 -455 -119 -636t-436 -181q-78 0 -449 33zM381 254q0 -23 27.5 -27t112.5 -4t120 9.5t64.5 33t39.5 90.5q20 131 21 406q0 567 -117 567q-178 0 -223 -7t-45 -40v-1028z" />
<glyph unicode="E" horiz-adv-x="989" d="M92 33v1507h727q88 -2 88 -65q-2 -55 -6 -87t-25.5 -63t-62.5 -31h-457l23 -362h395q82 0 82 -74q0 -100 -12.5 -137t-63.5 -37h-401v-436h473q49 -2 67.5 -19.5t18.5 -52.5q0 -100 -18.5 -138t-73.5 -38h-721z" />
<glyph unicode="F" horiz-adv-x="899" d="M92 0v1540h707q109 -2 108 -59q0 -104 -22.5 -145.5t-96.5 -41.5h-434l21 -362h428q84 0 84 -66q0 -106 -18.5 -144t-77.5 -38h-412v-684q0 -12 -2 -16q-10 -16 -79 -16q-3 0 -6 -1q-66 1 -132 11q-68 10 -68 22z" />
<glyph unicode="G" horiz-adv-x="1120" d="M74 760q0 326 51 500t162.5 243.5t316.5 69.5t316 -55q45 -23 45 -62q0 -12 -19.5 -69.5t-37 -78t-38 -20.5t-113.5 16.5t-159 16.5t-94.5 -12.5t-47 -46t-29.5 -71.5t-17 -110q-8 -96 -8 -379q-1 -5 -1 -9q0 -276 34 -373q34 -99 157 -99l168 10v447q2 41 27.5 54 t90.5 14q6 1 11 1q58 0 88 -17q33 -17 37 -71l35 -401v-258q-261 -33 -439 -33q-305 0 -420.5 172t-115.5 621z" />
<glyph unicode="H" horiz-adv-x="1091" d="M92 45v1456q0 45 19.5 58.5t81.5 13.5q147 0 149 -72l35 -620h336v622q0 43 19.5 56.5t80.5 13.5q147 0 150 -76l38 -614v-840q0 -35 -2 -47q-8 -29 -79 -29q-207 0 -207 74v594h-336l2 -592q0 -35 -2 -47q-8 -29 -80 -29q-205 0 -205 78z" />
<glyph unicode="I" horiz-adv-x="665" d="M63 133q1 115 58 115h74v1046h-62q-41 2 -55 27q-14 29 -15 104q0 115 68 115h363q90 0 90 -63q0 -182 -72 -183h-51l20 -409l2 -637h62q71 -2 71 -64q0 -184 -100 -184h-387q-37 2 -51 27q-14 29 -15 106z" />
<glyph unicode="J" horiz-adv-x="591" d="M1 -344v8q0 57 15 80q15 25 50 25q90 0 120.5 122.5t30.5 442.5l2 1165q0 45 21.5 59.5t83.5 14.5q147 0 149 -76l33 -612v-547q0 -346 -43 -522q-27 -102 -76 -158q-104 -117 -321 -117q-37 2 -50.5 27.5t-14.5 87.5z" />
<glyph unicode="K" horiz-adv-x="1193" d="M92 41v1456q0 45 22.5 60.5t84.5 15.5q147 0 149 -78l31 -610l2 -840q0 -37 -4 -49q-6 -29 -78 -29q-207 0 -207 74zM434 791v61l307 647q31 74 168.5 74t137.5 -51q0 -10 -7 -23l-309 -645l391 -811q15 -32 15 -46q1 -13 -7 -21q-8 -10 -80.5 -9.5t-155.5 18t-101 58.5z " />
<glyph unicode="L" d="M92 33v1464q0 45 21.5 60.5t83.5 15.5q147 0 149 -74l31 -614l2 -637h397q100 0 101 -74q0 -133 -39 -160q-20 -14 -54 -14h-659z" />
<glyph unicode="M" horiz-adv-x="1222" d="M92 43v1452q0 78 141.5 78t169.5 -76l207 -528l217 530q16 45 40 59.5t83 14.5q147 0 150 -80l33 -610v-826q0 -61 -11.5 -75.5t-74 -14.5t-101.5 4t-70.5 21.5t-31.5 50.5v930l-133 -248h-207l-125 244v-924q0 -37 -2 -49q-8 -29 -80 -29q-205 0 -205 76z" />
<glyph unicode="N" horiz-adv-x="1112" d="M92 49v1448q0 76 148 76q31 0 48 -2t43.5 -19.5t47.5 -50.5l366 -860l-12 858q0 74 148 74q61 0 83.5 -14.5t24.5 -59.5l33 -616v-840q0 -35 -2 -47q-8 -29 -80 -29q-133 0 -160 76l-403 850l2 -848q0 -37 -2 -49q-8 -29 -80 -29q-205 0 -205 82z" />
<glyph unicode="O" horiz-adv-x="1222" d="M76 760q0 326 51 500t162.5 243.5t322.5 69.5t323 -69.5t162 -243t50 -500.5q0 -449 -114.5 -621t-420 -172t-421 172t-115.5 621zM401 718.5q0 -188.5 12.5 -315.5t33 -166.5t55.5 -39.5q180 0 235 36q20 14 40 47t28 68t14 103q8 88 8 316t-11 360.5t-32.5 180.5 t-56.5 48q-82 0 -132 -7.5t-89 -35t-57.5 -61t-30.5 -110.5t-14.5 -156t-2.5 -267.5z" />
<glyph unicode="P" horiz-adv-x="976" d="M92 45v1495q207 33 365 33q279 0 388 -117t109 -366q0 -295 -147 -404q-96 -70 -189 -86q-119 -18 -270 -18v-535q0 -39 -4 -51q-6 -29 -78 -29q-174 0 -174 78zM348 893q0 -23 7 -26t12.5 -4t47.5 -1t76.5 2t74.5 13.5t57 35.5q37 60 37 167q0 110 -34 180 q-32 68 -69 69q-147 0 -178 -6t-31 -41v-389z" />
<glyph unicode="Q" horiz-adv-x="1206" d="M66 760q0 326 51 500t162.5 243.5t322.5 69.5t322.5 -69.5t162 -243t50.5 -500.5q0 -449 -115 -621t-420 -172t-420.5 172t-115.5 621zM227 -238q2 72 39 97.5t122 25.5t293 -20.5t320 -20.5l52 -116q-2 -66 -32 -88.5t-122 -22.5t-308 22.5t-331 22.5zM391 718.5 q0 -188.5 12.5 -315.5t33 -166.5t55.5 -39.5q180 0 237 36q18 14 37.5 47t28 68t14.5 103q8 88 8 316t-11 360.5t-32.5 180.5t-56.5 48q-82 0 -132 -7.5t-89 -35t-57.5 -61t-31 -110.5t-14.5 -156t-2 -267.5z" />
<glyph unicode="R" horiz-adv-x="1089" d="M92 49v1491q209 33 363 33q285 0 393 -106.5t108 -352.5q0 -344 -192 -459l258 -583q23 -50 23 -66t-5 -20q-8 -18 -69 -19q-199 0 -234 78l-233 541q-51 -4 -154 -4v-529q0 -57 -11 -71.5t-71 -14.5q-176 0 -176 82zM350 893q0 -27 10.5 -29t22.5 -2q164 0 221.5 46 t57.5 208q0 98 -32 155.5t-71 57.5q-145 0 -177 -6t-32 -41v-389z" />
<glyph unicode="S" horiz-adv-x="1069" d="M55 230.5q0 27.5 48.5 75.5t63.5 52t29.5 4t47.5 -18q152 -119 266.5 -119t149 53.5t34.5 139.5t-61.5 139t-201.5 129t-244.5 197t-104.5 250q0 229 120 334.5t351 105.5q141 0 276 -68q68 -27 68 -56l-4 -40q-39 -111 -59 -127q-6 -4 -28 -4t-114 34t-156.5 34 t-107.5 -45.5t-43 -127t73.5 -148.5t227.5 -138q162 -84 243 -174t81 -242q0 -504 -426 -504q-317 0 -486 183q-43 53 -43 80.5z" />
<glyph unicode="T" horiz-adv-x="962" d="M14 1423q0 117 70 117h745q119 0 119 -63q0 -182 -98 -183l-229 2l18 -415l2 -834q0 -39 -2 -51q-8 -29 -80 -29q-207 0 -207 76v1251h-256q-49 2 -63 27q-18 29 -19 102z" />
<glyph unicode="U" horiz-adv-x="1126" d="M84 758v676q0 88 25.5 113.5t105.5 25.5t108.5 -27.5t32.5 -132.5l29 -530q0 -518 41 -617q16 -43 47 -43q72 0 111 3t75.5 24.5t51 50.5t26.5 96q14 94 15 361v721q0 57 24.5 75.5t102 18.5t107.5 -24.5t32 -118.5l24 -551v-62q0 -317 -42 -503.5t-143 -266.5t-290 -80 q-274 0 -378.5 172t-104.5 619z" />
<glyph unicode="V" horiz-adv-x="1179" d="M49 1513q0 59 139 60q68 0 106 -17.5t50 -66.5l279 -1092l245 1102q8 43 35 58.5t90 15.5q137 0 137 -60q0 -10 -2 -20l-344 -1450q-10 -47 -26.5 -61.5t-98.5 -14.5q-190 0 -210 78l-398 1452q-2 8 -2 16z" />
<glyph unicode="W" horiz-adv-x="1941" d="M66 1516q0 57 138 57t156 -76l277 -1100l197 897q8 41 34.5 55.5t89.5 14.5q164 0 187 -88l221 -879l244 1100q10 45 36.5 60.5t104.5 15.5t101.5 -10.5t23.5 -46.5q0 -8 -2 -19l-342 -1456q-10 -43 -29.5 -58.5t-62.5 -15.5q-219 0 -240 74l-217 727l-184 -723 q-10 -45 -30.5 -61.5t-61.5 -16.5q-219 0 -238 74l-401 1462q-2 7 -2 13z" />
<glyph unicode="X" horiz-adv-x="1224" d="M76 43l387 807l-305 647q-4 12 -4 23q0 53 136 53t161 -76l161 -428l162 428q25 76 163 76t138 -53q0 -12 -8 -31l-305 -641l389 -805q14 -31 14 -44t-7 -22.5t-79.5 -9.5t-155.5 17.5t-100 60.5l-211 533l-213 -533q-18 -47 -37.5 -62.5t-58.5 -15.5t-78 4 q-153 12 -153 57q0 7 4 15z" />
<glyph unicode="Y" horiz-adv-x="1177" d="M43 1526q0 47 135 47t166 -76l281 -489l243 495q16 41 45 55.5t91 14.5q139 0 139 -51q0 -12 -6 -25l-400 -782v-672q0 -35 -4 -47q-6 -29 -78 -29q-158 0 -157 78v670l-447 784q-8 15 -8 27z" />
<glyph unicode="Z" horiz-adv-x="1085" d="M61 1419q1 63 15 91q14 30 61 30h824l32 -33v-180l-567 -1079h485q68 -2 91.5 -17.5t23.5 -48.5q-4 -182 -104 -182h-799l-33 33v217l582 1044h-525q-53 2 -69 25q-17 30 -17 100z" />
<glyph unicode="[" horiz-adv-x="755" d="M88 -254l16 2075l33 32h533l32 -32v-189l-32 -33h-338l37 -716l4 -916h280l33 -33v-188l-33 -33h-532z" />
<glyph unicode="\" horiz-adv-x="761" d="M25 1575v219h215l505 -2027v-66h-278z" />
<glyph unicode="]" horiz-adv-x="753" d="M55 1632v189l33 32h500l33 -32l41 -938l8 -1137l-33 -33h-533l-32 33v188l32 33h279l10 1632h-305z" />
<glyph unicode="^" horiz-adv-x="772" d="M51 1139l27 110l209 250l100 41l100 -41l209 -250l27 -110l-80 -66l-256 232l-256 -232z" />
<glyph unicode="_" horiz-adv-x="997" d="M92 0v254h780l33 -33v-188l-33 -33h-780z" />
<glyph unicode="`" horiz-adv-x="491" d="M12 1450l221 123l86 -66l117 -254l-2 -112l-94 -43z" />
<glyph unicode="a" d="M72 328q0 166 161 227l293 76q-2 133 -26.5 172t-106.5 39t-141 -27l-72 -29h-2q-18 -10 -33 17q-37 77 -37 121q0 45 8 50q7 5 7 7q102 68 265 68t251 -43t128 -157t40 -337l-4 -512q0 -12 -4 -16q-8 -16 -78 -17q-127 0 -127 33l-33 63q-106 -96 -189 -96t-134.5 11.5 t-92.5 49.5t-57 109.5t-16 190.5zM299 324q0 -147 86 -156q59 0 86 20q57 39 57 291q-106 -14 -167.5 -58t-61.5 -97z" />
<glyph unicode="b" horiz-adv-x="923" d="M92 -33v1573q0 33 72 33t119 -9.5t49 -23.5l35 -491h98q248 0 337 -110t89 -417t-70.5 -431t-222.5 -124q-104 0 -250 25l-47 8q-55 -33 -209 -33zM367 164h196q23 0 28 87t5 281.5t-27.5 257t-103.5 62.5h-98v-688z" />
<glyph unicode="c" horiz-adv-x="841" d="M74 512q0 223 40 337t128 157t256 43t260 -70h2q14 -8 14 -38t-14 -79q-23 -78 -50 -78q-4 0 -8 2h-2l-71 29q-59 27 -144.5 27t-109 -70t-23.5 -268.5t30 -267t114 -68.5q121 0 188.5 14.5t69.5 14.5q14 4 23 -16.5t9 -96.5t-32 -84q-127 -33 -250 -33q-248 0 -339 118 t-91 427z" />
<glyph unicode="d" horiz-adv-x="923" d="M35 522q0 307 89 417t337 110h98v491q0 33 71.5 33t119 -9.5t49.5 -23.5l35 -653v-887q0 -12 -3 -16q-9 -16 -75 -16q-3 0 -7 -1q-61 -1 -105 9q-46 10 -46 24l-39 63q-59 -39 -84 -55q-67 -41 -147 -41q-152 0 -222.5 124t-70.5 431zM330 578.5q0 -148.5 1 -195.5 t3 -109q4 -111 28 -110q74 0 197 74v614h-98q-76 0 -103.5 -62.5t-27.5 -211z" />
<glyph unicode="e" horiz-adv-x="929" d="M76 512q0 221 39 337t117.5 158t232 42t232.5 -43t116 -160t37 -332v-24.5t-48 -22.5t-116 -10h-315q4 -240 35 -273q18 -16 59 -16q268 0 366 27q4 2 7 2q14 4 23 -16.5t9 -96.5t-32 -84q-84 -33 -373 -33q-219 0 -304 119t-85 426zM371 621h207q-8 238 -48 237 q-70 0 -114.5 -20.5t-44.5 -57.5v-159z" />
<glyph unicode="f" horiz-adv-x="755" d="M8 889q0 88 31 94l164 33q0 330 87 443.5t337 113.5q162 0 254 -70h2q18 -10 18 -35.5t-8 -58.5t-19.5 -59.5t-21.5 -36.5t-17.5 -8t-7.5 4l-75 30q-59 27 -143.5 27t-109 -78t-24.5 -272h197q33 0 33 -82t-33 -82h-180v-1311q0 -12 -5 -16q-8 -16 -77 -17h-6 q-65 0 -132 10q-69 11 -69 23v1311h-164q-25 0 -28 11t-3 26z" />
<glyph unicode="g" horiz-adv-x="995" d="M66 636.5q0 147.5 18 223.5t70.5 119t124 56.5t196.5 13.5h447q32 0 32 -77q0 -46 -32 -54l-7 -3l-88 -16q57 -94 58 -244q0 -236 -91.5 -339t-318.5 -103h-45l-18 -96q231 -4 300.5 -16.5t96.5 -29t50.5 -49t28.5 -75.5t5 -113q0 -170 -94 -248t-336 -78q-113 0 -283 33 q-31 6 -31 101q0 102 29 102h2h2q184 -20 294 -20t136.5 16t26.5 80.5t-23.5 73t-95.5 8.5l-174 -2q-127 0 -152.5 20.5t-25.5 49t10 63.5l72 217q-98 43 -141 141t-43 245.5zM338 671q0 -126 11 -182.5t23.5 -65.5t60.5 -9t78 3t54.5 29.5t27.5 69.5t3 135t-11.5 138.5 t-23.5 54.5t-35 8q-133 0 -160.5 -27.5t-27.5 -153.5z" />
<glyph unicode="h" horiz-adv-x="950" d="M92 0v1540q0 33 73 33t126 -9.5t55 -23.5l37 -592q155 101 235 101q152 0 222.5 -94.5t70.5 -331.5v-623q0 -12 -2 -16q-11 -16 -79 -16q-3 0 -6 -1q-66 1 -134 11q-72 10 -72 22l-2 623q0 229 -32 229q-74 0 -197 -74v-778q0 -12 -2 -16q-11 -16 -79 -16q-3 0 -6 -1 q-66 1 -135 11q-73 10 -73 22z" />
<glyph unicode="i" horiz-adv-x="464" d="M76 1425.5q0 147.5 147.5 147.5t147.5 -147.5t-147.5 -147.5t-147.5 147.5zM96 0v1016q0 33 74 33t139.5 -10.5t65.5 -22.5v-1016q0 -12 -2 -16q-10 -16 -78 -16q-3 0 -6 -1q-65 1 -127 11q-66 10 -66 22z" />
<glyph unicode="j" horiz-adv-x="442" d="M70 1425.5q0 147.5 147.5 147.5t147.5 -147.5t-147.5 -147.5t-147.5 147.5zM84 0v1016q0 33 73.5 33t137 -10.5t63.5 -22.5v-1475q0 -12 -2 -16q-10 -16 -76 -17h-7q-62 0 -107 10q-47 9 -49 23z" />
<glyph unicode="k" horiz-adv-x="995" d="M92 0v1540q0 33 72 33t119 -9.5t49 -23.5l39 -657v-883q0 -12 -2 -16q-10 -16 -78 -16q-3 0 -6 -1q-65 1 -127 11q-66 10 -66 22zM414 557v66l217 391q2 0 2 2q18 33 82 33q145 0 186 -25q8 -4 6 -8l-231 -393l305 -623q2 -6 2 -10q0 -23 -76 -23t-147.5 10.5t-77.5 22.5 l-2 2z" />
<glyph unicode="l" horiz-adv-x="454" d="M92 0v1540q0 33 72 33t119 -9.5t49 -23.5l37 -657v-883q0 -12 -4 -16q-8 -16 -76 -16q-3 0 -6 -1q-65 1 -127 11q-64 10 -64 22z" />
<glyph unicode="m" horiz-adv-x="1525" d="M92 0v1016q0 33 82 33q129 0 148 -33q0 -4 2 -4l38 -78q172 115 256 115q180 0 244 -131q188 131 281 131q152 0 222.5 -94.5t70.5 -331.5v-623q0 -12 -2 -16q-10 -16 -79 -16q-3 0 -6 -1q-65 1 -135 11q-72 10 -73 22v623q0 229 -33 229q-72 0 -207 -80q10 -76 10 -149 v-623q0 -12 -2 -16q-11 -16 -79 -16q-3 0 -6 -1q-66 1 -135 11q-73 10 -73 22v698q-4 154 -32 154q-74 0 -197 -74v-778q0 -12 -2 -16q-11 -16 -79 -16q-3 0 -6 -1q-66 1 -135 11q-73 10 -73 22z" />
<glyph unicode="n" horiz-adv-x="999" d="M92 0v1016q0 33 82 33q129 0 148 -33q0 -4 2 -4l38 -78q172 115 256 115q152 0 222.5 -94.5t70.5 -331.5v-623q0 -12 -2 -16q-11 -16 -79 -16q-3 0 -6 -1q-66 1 -134 11q-72 10 -72 22l-2 623q0 229 -32 229q-74 0 -197 -74v-778q0 -12 -2 -16q-11 -16 -79 -16 q-3 0 -6 -1q-66 1 -135 11q-73 10 -73 22z" />
<glyph unicode="o" horiz-adv-x="970" d="M76 512q0 223 39 338t123 157t247.5 42t247.5 -42t123 -157t39 -338q0 -307 -88 -426t-321.5 -119t-321.5 119t-88 426zM354 512q0 -344 66 -344q90 0 133 29q23 16 31 59q16 86 16 256q0 340 -65 340q-123 0 -152 -56.5t-29 -283.5z" />
<glyph unicode="p" horiz-adv-x="927" d="M92 -459v1475q0 33 96 33t115 -37l39 -78q172 115 256 115q152 0 222.5 -124t70.5 -431.5t-89 -417t-337 -109.5h-98v-426q0 -12 -2 -16q-10 -16 -78 -17h-6q-65 0 -125 10q-64 11 -64 23zM367 164h98q76 0 103.5 62.5t27.5 211t-1 195.5t-3 108q-4 111 -29 111 q-74 0 -196 -74v-614z" />
<glyph unicode="q" horiz-adv-x="927" d="M35 436q0 250 40 381t128 181.5t258 50.5h127q102 0 211 -29l35 -10v-1469q0 -12 -3 -16q-10 -16 -77 -17h-6q-62 0 -108 10q-48 9 -48 23l-4 492q-96 -63 -253 -63l-1 -1q-156 0 -228 109q-71 108 -71 358zM330 391q0 -225 32 -225q102 0 226 74v614h-127 q-53 0 -79 -27.5t-39 -119t-13 -316.5z" />
<glyph unicode="r" horiz-adv-x="753" d="M92 0v1016q0 33 92 33t107 -33v-4l41 -78q168 115 222 115t98 -20.5t65 -41.5l18 -18q-31 -131 -47 -164t-44 -33t-71 22.5t-77.5 22.5t-139.5 -63v-754q0 -12 -4 -16q-8 -16 -76 -16q-3 0 -6 -1q-64 1 -120 11q-58 10 -58 22z" />
<glyph unicode="s" horiz-adv-x="849" d="M57 139q0 7 3 19t48.5 66.5t71.5 54.5q8 0 17 -9q109 -86 211 -86q57 0 85.5 33t28.5 72t-32.5 63.5t-81 48t-52.5 25.5t-11 6t-13 6q-104 51 -177 128t-73 171q0 164 85 238t269 74q70 0 133 -17q86 -23 123 -53h2q16 -10 19.5 -24.5t-2.5 -61.5q-20 -119 -49 -119 l-13 4l-78 39q-88 35 -151 35q-92 -4 -92 -88q0 -33 35.5 -53.5t58 -31.5t65.5 -32q154 -66 229 -145.5t75 -157.5q0 -170 -90.5 -273.5t-245 -103.5t-242.5 41t-147 117q-9 4 -9 14z" />
<glyph unicode="t" horiz-adv-x="690" d="M-4 889q0 88 31 94l163 33l115 231q25 31 94 31q18 0 35 -74t35 -188h197q33 0 33 -80q0 -84 -33 -84h-199v-651l33 -232v-2q2 -12 0 -16q-10 -16 -103 -17q-92 0 -110 37l-97 195v686h-163q-25 0 -28 11t-3 26z" />
<glyph unicode="u" horiz-adv-x="997" d="M86 393v623q0 33 75 33t146.5 -10.5t71.5 -22.5l2 -623q0 -229 33 -229q74 0 196 74v778q0 33 75 33t147.5 -10.5t72.5 -22.5v-1016q0 -12 -4 -16q-7 -16 -105 -16q-1 0 -3 -1q-95 0 -117 33l-43 63q-143 -96 -254 -96q-152 0 -222.5 94.5t-70.5 331.5z" />
<glyph unicode="v" horiz-adv-x="962" d="M43 1022q0 27 75 27t139.5 -10.5t66.5 -22.5l182 -766l160 766q8 33 65 33t96 -5q94 -10 91 -28l-3 -4l-256 -1012q-8 -33 -78.5 -33t-149.5 10.5t-83 22.5l-303 1012v4q-2 4 -2 6z" />
<glyph unicode="w" horiz-adv-x="1503" d="M57 1022q0 27 75 27t139.5 -10.5t66.5 -22.5l182 -719l121 555q0 20 23 27q25 6 61.5 6t100 -9.5t67.5 -23.5l141 -559l160 723q8 33 65.5 33t96.5 -5q94 -10 90 -28l-2 -4l-256 -1012q-8 -33 -79 -33t-149.5 10.5t-82.5 22.5l-111 369l-92 -369q-8 -33 -79 -33 t-149.5 10.5t-83.5 22.5l-303 1012v4q-2 4 -2 6z" />
<glyph unicode="x" horiz-adv-x="1058" d="M53 0l314 535l-273 481q-3 5 -3 9q0 24 85 24q63 0 124.5 -10.5t70.5 -22.5v-2l145 -273l123 271q18 37 83.5 37t127 -10.5t57.5 -22.5l-223 -481l309 -535q2 -4 2 -8q0 -25 -75.5 -25t-148.5 10.5t-81 22.5q-2 0 -2 2l-164 293l-164 -293v-2q-4 -8 -6 -10t-7 -8.5 t-11 -8.5q-23 -6 -53 -6q-158 0 -220 23q-12 6 -10 10z" />
<glyph unicode="y" horiz-adv-x="942" d="M43 1022q0 27 75 27t139.5 -10.5t66.5 -22.5l182 -701l160 701q8 33 65 33q113 0 150 -12.5t37 -18.5l-410 -1477q-8 -33 -65.5 -33t-94.5 5q-80 10 -76 28q0 6 2 10l105 449l-334 1012v4q-2 4 -2 6z" />
<glyph unicode="z" horiz-adv-x="860" d="M72 895v12q0 109 30 109h607l32 -33v-184l-356 -570h389q33 0 33 -82q0 -143 -33 -147h-655l-33 33v164l397 602h-381q-30 0 -30 90v6z" />
<glyph unicode="{" horiz-adv-x="872" d="M39 786l168 240l6 827h565l33 -32v-222h-371l37 -557l-198 -256l200 -256l4 -575h279l33 -33v-221h-566l-32 33l6 817z" />
<glyph unicode="|" horiz-adv-x="458" d="M86 -266l16 2119h205l33 -32l33 -936v-1184h-254z" />
<glyph unicode="}" horiz-adv-x="870" d="M61 1632v221h533l33 -32l39 -795l168 -240l-164 -235l6 -850h-563l-35 35v219h311l4 575l201 256l-199 256l4 557h-305z" />
<glyph unicode="~" horiz-adv-x="1032" d="M74 717l51 104q154 0 351.5 18.5t306 18.5t145.5 -21.5t37 -93.5l-33 -92h-96t-292 -20.5t-312.5 -20.5t-130 19.5t-27.5 87.5z" />
<glyph unicode="&#xa1;" horiz-adv-x="505" d="M41 -453l129 1041l207 -23l29 -37l-33 -624l-66 -451l-209 23zM166 901.5q0 147.5 147.5 147.5t147.5 -147.5t-147.5 -147.5t-147.5 147.5z" />
<glyph unicode="&#xa2;" horiz-adv-x="776" d="M74 790.5q0 247.5 51 361.5t186 146l4 275h222l38 -33v-229q106 -16 183 -64h2q14 -8 14 -37.5t-14 -79.5q-27 -90 -58 -75h-2l-71 28q-59 27 -144.5 27t-109 -69.5t-23.5 -268.5t30 -267.5t114 -68.5q121 0 188.5 14.5t69.5 14.5q14 4 23 -16.5t9 -96.5t-32 -84 q-82 -25 -170 -30l2 -240h-252l-35 63v201q-125 41 -175 161t-50 367.5z" />
<glyph unicode="&#xa3;" horiz-adv-x="1013" d="M49 655v222h125q2 313 48 489t153.5 258t302.5 88l33 -33v-211q-160 0 -195 -229q-20 -133 -20 -362h118l33 -33v-221h-178l2 -375h465l33 -33v-215h-752l-33 33v590h-102z" />
<glyph unicode="&#xa4;" horiz-adv-x="870" d="M66 592l77 78q-14 49 -14 112.5t12 112.5l-65 66v47l157 155l84 -86q59 16 117 16.5t109 -12.5l61 62h47l156 -158l-78 -78q14 -49 14 -112.5t-12 -112.5l66 -66v-47l-158 -155l-84 86q-59 -16 -116.5 -16.5t-108.5 12.5l-62 -62h-47zM324 788q2 -111 113.5 -111 t111.5 111q-2 111 -113.5 111t-111.5 -111z" />
<glyph unicode="&#xa5;" horiz-adv-x="1196" d="M47 1526q0 47 135 47t166 -76l246 -428h65l213 434q16 41 45 55.5t91 14.5q139 0 139 -51q0 -12 -6 -25l-219 -428h131l32 -33v-221h-843l-33 33v221h90l-244 430q-8 15 -8 27zM209 434v221h844l32 -32v-222h-344v-358q0 -35 -4 -47q-6 -29 -78 -29q-158 0 -157 78v356 h-260z" />
<glyph unicode="&#xa6;" horiz-adv-x="448" d="M92 -266v870h254l33 -33v-870h-254zM92 1020v833h254l33 -32v-834h-254z" />
<glyph unicode="&#xa7;" horiz-adv-x="913" d="M57.5 137q-0.5 8 2.5 20.5t48.5 67t71.5 54.5q8 0 17 -9q109 -86 211 -86q57 0 85.5 33t28.5 72t-32.5 63.5t-81 48t-52.5 25.5t-11 6t-13 6q-104 51 -177 128t-73 171q0 221 160 283q-102 92 -103 201q0 164 85 237.5t270 73.5q70 0 133 -16q86 -23 123 -54h2 q16 -10 19 -24.5t-3 -61.5q-20 -119 -49 -119l-12 5l-78 38q-88 35 -152 35q-92 -4 -92 -88q0 -33 36 -53t58.5 -31.5t65.5 -32.5q154 -66 228.5 -145.5t74.5 -157.5q0 -215 -139 -319q82 -86 82 -164q0 -170 -90.5 -273.5t-245 -103.5t-242.5 41t-147 117q-8 4 -8.5 12z M326 764q0 -41 43 -71.5t95 -30.5t84 18t37 37.5t5 59.5t-56.5 57.5t-115.5 17.5q-92 -4 -92 -88z" />
<glyph unicode="&#xa8;" horiz-adv-x="942" d="M84 1425.5q0 147.5 147.5 147.5t147.5 -147.5t-147.5 -147.5t-147.5 147.5zM563 1425.5q0 147.5 147.5 147.5t147.5 -147.5t-147.5 -147.5t-147.5 147.5z" />
<glyph unicode="&#xa9;" horiz-adv-x="1529" d="M63 700.5q0 307.5 200 521.5t501 214t501.5 -214t200.5 -521.5t-200.5 -520.5t-501.5 -213t-501 213t-200 520.5zM203 700.5q0 -249.5 159.5 -422t402.5 -172.5t402.5 172.5t159.5 422t-160.5 422.5t-402.5 173t-401.5 -173t-159.5 -422.5zM500 697.5q0 230.5 61.5 307 t213 76.5t218.5 -45l-26 -94h-95q-23 10 -84 10q-37 0 -47 -53t-10 -215t11.5 -210t50.5 -48q68 0 186 14v-127q-119 -16 -182 -16q-170 0 -233.5 85t-63.5 315.5z" />
<glyph unicode="&#xaa;" horiz-adv-x="706" d="M72 995q0 125 121 170l219 58q-2 100 -19.5 130.5t-81 30.5t-104.5 -20h-62l-36 123q70 53 192 53q188 0 255 -80t67 -325l-2 -385h-158l-25 47q-82 -72 -137 -72q-131 0 -180 50t-49 220zM242 993q0 -113 65 -116q63 0 85 40.5t22 192.5q-80 -12 -126 -45t-46 -72z" />
<glyph unicode="&#xab;" horiz-adv-x="1210" d="M43 786l41 101l348 340l111 26l65 -79l-329 -388l362 -387l-66 -80l-110 27l-381 340zM535 786l40 101l349 340l110 26l66 -79l-330 -388l363 -387l-66 -80l-111 27l-381 340z" />
<glyph unicode="&#xac;" horiz-adv-x="1067" d="M18 664v221h922l33 -33l-2 -571h-221l-33 32v318h-666z" />
<glyph unicode="&#xad;" horiz-adv-x="784" d="M92 664v221h565l33 -33v-221h-565z" />
<glyph unicode="&#xae;" horiz-adv-x="1529" d="M63 700.5q0 307.5 200 521.5t501 214t501.5 -214t200.5 -521.5t-200.5 -520.5t-501.5 -213t-501 213t-200 520.5zM203 700.5q0 -249.5 159.5 -422t402.5 -172.5t402.5 172.5t159.5 422t-160.5 422.5t-402.5 173t-401.5 -173t-159.5 -422.5zM532 330v733q137 27 220 27 q162 0 224 -55.5t62 -190.5t-98 -213l147 -334h-194l-33 33l-115 262h-14v-295h-166zM731 938l2 -188q16 -6 33 -7q57 5 57 111.5t-18 106.5q-70 0 -74 -23z" />
<glyph unicode="&#xb0;" horiz-adv-x="630" d="M70 1296.5q0 245.5 245.5 245.5t245.5 -245.5t-245.5 -245.5t-245.5 245.5zM225 1296q0 -90 90.5 -90t90.5 90t-90.5 90t-90.5 -90z" />
<glyph unicode="&#xb1;" horiz-adv-x="931" d="M59 360v222h781l32 -33v-221h-780zM59 991v221h279v279h219l35 -35v-244h248l32 -32v-222h-280v-280h-221l-33 33v247h-246z" />
<glyph unicode="&#xb2;" horiz-adv-x="851" d="M80 412v151l242 326q72 94 98 131q72 102 72 184t-14.5 114t-65.5 32q-102 0 -164 -19h-103l-41 150q86 59 287 59t282 -78t81 -254q0 -68 -68 -185.5t-307 -440.5h369l30 -31v-172h-665z" />
<glyph unicode="&#xb3;" horiz-adv-x="845" d="M80 1481q86 59 288.5 59t289.5 -79t87 -235.5t-73 -240.5q104 -84 104 -258t-99 -266t-339 -92q-78 0 -236 18v188q174 -10 252 -10t103.5 28t25.5 127t-20.5 120.5t-120.5 21.5h-117v197q139 0 183.5 23.5t44.5 127.5q0 140 -66 140q-102 0 -164 -19h-102z" />
<glyph unicode="&#xb4;" horiz-adv-x="491" d="M55 1253l117 254l86 66l221 -123l-327 -352l-95 43z" />
<glyph unicode="&#xb6;" horiz-adv-x="1439" d="M49 967q0 168 19.5 270t70.5 163.5t129 84t207 22.5h871l32 -32v-175h-237l2 -1300h-262l-33 33l2 1267h-141l2 -1300h-262l-33 33v934h-367z" />
<glyph unicode="&#xb7;" horiz-adv-x="438" d="M72 604.5q0 147.5 147.5 147.5t147.5 -147.5t-147.5 -147.5t-147.5 147.5z" />
<glyph unicode="&#xb8;" horiz-adv-x="450" d="M49 -229l43 247l117 -20l-16 -94q206 -39 206 -217q0 -31 -6 -68q-39 -205 -215 -205q-33 0 -69 6l26 152q12 -2 23 -2q68 0 82 76q2 14 2 26q0 66 -76 78z" />
<glyph unicode="&#xb9;" horiz-adv-x="593" d="M49 1440l369 104l33 -33l2 -936h41l32 -32v-158h-381l-32 33v157h77v707l-86 -27z" />
<glyph unicode="&#xba;" horiz-adv-x="962" d="M74 939q0 325 90 467t319 142q225 0 324 -184q86 -166 86 -439.5t-93 -419t-320.5 -145.5t-316.5 127t-89 452zM352 926q0 -365 66 -365q121 0 150.5 62.5t29.5 249t-8 286.5q-18 193 -58 193q-117 0 -148.5 -90t-31.5 -336z" />
<glyph unicode="&#xbb;" horiz-adv-x="1210" d="M78 399l362 387l-329 388l65 79l111 -26l348 -340l41 -101l-41 -100l-381 -340l-111 -27zM569 399l363 387l-330 388l66 79l110 -26l348 -340l41 -101l-41 -100l-381 -340l-110 -27z" />
<glyph unicode="&#xbc;" horiz-adv-x="2021" d="M47 1440l369 104l33 -33l2 -936h41l32 -32v-158h-381l-32 33v157h77v707l-86 -27zM475 -233l506 2027h215v-219l-442 -1874h-279v66zM1221 506l2 649h225l33 -33v-458h155l2 491h228l32 -33v-458h58l33 -33v-158h-91v-473h-229l-33 33v440h-383z" />
<glyph unicode="&#xbd;" horiz-adv-x="2035" d="M45 1440l369 104l32 -33l3 -936h40l33 -32v-158h-381l-32 33v157h77v707l-86 -27zM535 -233l505 2027h215v-219l-442 -1874h-278v66zM1305 33v151l241 326q72 94 99 133q72 100 71.5 182t-15 114t-65.5 32q-102 0 -163 -19h-103l-41 150q86 59 287 59t281.5 -77.5 t80.5 -254.5q0 -68 -67.5 -185.5t-306.5 -440.5h368l31 -31v-172h-666z" />
<glyph unicode="&#xbe;" horiz-adv-x="2125" d="M37 1481q86 59 288.5 59t289.5 -79t87 -235.5t-73 -240.5q104 -84 104 -258t-99 -266t-339 -92q-78 0 -236 18v188q174 -10 252 -10t103.5 28t25.5 127t-20.5 120.5t-120.5 21.5h-117v197q139 0 183.5 23.5t44.5 127.5q0 140 -66 140q-102 0 -164 -19h-102zM621 -233 l505 2027h215v-219l-442 -1874h-278v66zM1321 506l2 649h225l33 -33v-458h156l2 491h227l33 -33v-458h57l33 -33v-158h-90v-473h-230l-32 33v440h-383z" />
<glyph unicode="&#xbf;" horiz-adv-x="899" d="M39 -117q0 57 10 94q31 94 311 410v217h246l33 -33v-196q0 -53 -88 -146q-137 -141 -177 -203.5t-40 -154.5t23.5 -134t109.5 -42q137 0 227 26h101l57 -206q-111 -72 -360.5 -72t-351 103.5t-101.5 336.5zM340 901.5q0 147.5 147.5 147.5t147.5 -147.5t-147.5 -147.5 t-147.5 147.5z" />
<glyph unicode="&#xc0;" horiz-adv-x="1083" d="M57 30.5q0 8.5 43 270.5t105.5 624.5t82 475t21.5 127.5q8 47 301 47q141 0 154 -64l139 -628l141 -838q4 -20 4.5 -37.5t-10 -29t-69.5 -11.5q-182 0 -195 78l-72 422h-286l-64 -424q-6 -43 -15 -57.5t-25.5 -16.5t-53.5 -2h-57q-72 0 -90 8q-45 16 -52 37 q-2 10 -2 18.5zM188 1974l222 123l86 -65l116 -254l-2 -113l-94 -43zM455 715h202l-108 592z" />
<glyph unicode="&#xc1;" horiz-adv-x="1081" d="M57 30.5q0 8.5 43 270.5t105.5 624.5t82 475t21.5 127.5q8 47 301 47q141 0 154 -64l139 -628l141 -838q4 -20 4.5 -37.5t-10 -29t-69.5 -11.5q-182 0 -195 78l-72 422h-286l-64 -424q-6 -43 -15 -57.5t-25.5 -16.5t-53.5 -2h-57q-72 0 -90 8q-45 16 -52 37 q-2 10 -2 18.5zM453 1778l116 254l86 65l222 -123l-328 -352l-94 43zM455 715h202l-108 592z" />
<glyph unicode="&#xc2;" horiz-adv-x="1097" d="M57 30.5q0 8.5 43 270.5t105.5 624.5t82 475t21.5 127.5q8 47 301 47q141 0 154 -64l139 -628l141 -838q4 -20 4.5 -37.5t-10 -29t-69.5 -11.5q-182 0 -195 78l-72 422h-286l-64 -424q-6 -43 -15 -57.5t-25.5 -16.5t-53.5 -2h-57q-72 0 -90 8q-45 16 -52 37 q-2 10 -2 18.5zM211 1761l27 111l208 184l101 41l100 -41l209 -184l27 -111l-80 -65l-256 166l-256 -166zM455 715h202l-108 592z" />
<glyph unicode="&#xc3;" horiz-adv-x="1087" d="M57 30.5q0 8.5 43 270.5t105.5 624.5t82 475t21.5 127.5q8 47 301 47q141 0 154 -64l139 -628l141 -838q4 -20 4.5 -37.5t-10 -29t-69.5 -11.5q-182 0 -195 78l-72 422h-286l-64 -424q-6 -43 -15 -57.5t-25.5 -16.5t-53.5 -2h-57q-72 0 -90 8q-45 16 -52 37 q-2 10 -2 18.5zM160 1876l51 104q154 0 288 18.5t242.5 18.5t145.5 -21.5t37 -92.5l-33 -93h-93t-228.5 -20.5t-252 -20.5t-130 19.5t-27.5 87.5zM455 715h202l-108 592z" />
<glyph unicode="&#xc4;" horiz-adv-x="1103" d="M57 30.5q0 8.5 43 270.5t105.5 624.5t82 475t21.5 127.5q8 47 301 47q141 0 154 -64l139 -628l141 -838q4 -20 4.5 -37.5t-10 -29t-69.5 -11.5q-182 0 -195 78l-72 422h-286l-64 -424q-6 -43 -15 -57.5t-25.5 -16.5t-53.5 -2h-57q-72 0 -90 8q-45 16 -52 37 q-2 10 -2 18.5zM162 1949.5q0 147.5 147.5 147.5t147.5 -147.5t-147.5 -147.5t-147.5 147.5zM455 715h202l-108 592zM641 1949.5q0 147.5 147.5 147.5t147.5 -147.5t-147.5 -147.5t-147.5 147.5z" />
<glyph unicode="&#xc5;" horiz-adv-x="1083" d="M57 30.5q0 8.5 43 270.5t105.5 624.5t82 475t21.5 127.5q8 47 301 47q141 0 154 -64l139 -628l141 -838q4 -20 4.5 -37.5t-10 -29t-69.5 -11.5q-182 0 -195 78l-72 422h-286l-64 -424q-6 -43 -15 -57.5t-25.5 -16.5t-53.5 -2h-57q-72 0 -90 8q-45 16 -52 37 q-2 10 -2 18.5zM342 1820.5q0 196.5 196.5 196.5t196.5 -196.5t-196.5 -196.5t-196.5 196.5zM455 715h202l-108 592zM467 1820.5q0 -71.5 71.5 -71.5t71.5 71.5t-71.5 71.5t-71.5 -71.5z" />
<glyph unicode="&#xc6;" horiz-adv-x="1566" d="M57 30.5v14.5l238 1372q12 98 168 115q74 8 199 8h724q88 -2 89 -65q-2 -55 -6.5 -87t-26 -63t-62.5 -31h-456l22 -362h395q82 0 82 -74q0 -100 -12 -137t-63 -37h-402v-436h473q49 -2 67.5 -19.5t18.5 -52.5q0 -100 -18.5 -138t-73.5 -38h-721l-33 33v434h-243l-64 -424 q-6 -43 -15 -57.5t-25.5 -16.5t-53.5 -2h-57q-72 0 -90 8q-45 16 -52 37q-2 10 -2 18.5zM455 715h202v592h-108z" />
<glyph unicode="&#xc7;" horiz-adv-x="960" d="M72 721.5q0 365.5 50 539t161.5 243t334 69.5t324.5 -70q20 -14 20.5 -34.5t-19 -77t-37 -80t-36 -23.5t-28.5 2q-154 31 -265.5 31t-145.5 -123t-34 -398.5t14.5 -384t53.5 -151.5t124 -43t192.5 10.5t111.5 10.5q51 0 51 -65.5t-2 -98.5q-8 -74 -65 -84 q-182 -27 -273 -27l-10 -63q207 -39 207 -217q0 -31 -6 -68q-39 -205 -215 -205q-33 0 -70 6l27 152q12 -2 22 -2q68 0 82 76q2 14 2 26q0 66 -76 78l-116 21l34 204q-233 29 -323 205t-90 541.5z" />
<glyph unicode="&#xc8;" horiz-adv-x="921" d="M92 33v1507h727q88 -2 88 -65q-2 -55 -6 -87t-25.5 -63t-62.5 -31h-457l23 -362h395q82 0 82 -74q0 -100 -12.5 -137t-63.5 -37h-401v-436h473q49 -2 67.5 -19.5t18.5 -52.5q0 -100 -18.5 -138t-73.5 -38h-721zM133 1974l221 123l86 -65l117 -254l-2 -113l-94 -43z" />
<glyph unicode="&#xc9;" horiz-adv-x="923" d="M59 33v1507h727q88 -2 88 -65q-2 -55 -6 -87t-25.5 -63t-62.5 -31h-456l22 -362h395q82 0 82 -74q0 -100 -12 -137t-63 -37h-402v-436h473q49 -2 67.5 -19.5t18.5 -52.5q0 -100 -18.5 -138t-73.5 -38h-721zM375 1778l117 254l86 65l221 -123l-328 -352l-94 43z" />
<glyph unicode="&#xca;" horiz-adv-x="944" d="M78 33v1507h727q88 -2 88 -65q-2 -55 -6 -87t-25.5 -63t-62.5 -31h-457l23 -362h395q82 0 82 -74q0 -100 -12.5 -137t-63.5 -37h-401v-436h473q49 -2 67.5 -19.5t18.5 -52.5q0 -100 -18.5 -138t-74.5 -38h-720zM145 1761l27 111l209 184l100 41l101 -41l209 -184l26 -111 l-80 -65l-256 166l-256 -166z" />
<glyph unicode="&#xcb;" horiz-adv-x="954" d="M84 33v1507h727q88 -2 88 -65q-2 -55 -6 -87t-25.5 -63t-62.5 -31h-457l23 -362h395q82 0 82 -74q0 -100 -12.5 -137t-63.5 -37h-401v-436h473q49 -2 67.5 -19.5t18.5 -52.5q0 -100 -18.5 -138t-73.5 -38h-721zM98 1949.5q0 147.5 147.5 147.5t147.5 -147.5 t-147.5 -147.5t-147.5 147.5zM578 1949.5q0 147.5 147 147.5t147 -147.5t-147 -147.5t-147 147.5z" />
<glyph unicode="&#xcc;" horiz-adv-x="686" d="M39 1974l221 123l86 -65l117 -254l-2 -113l-94 -43zM129 133q0 115 57 115h74v1046h-61q-41 2 -56 27q-14 29 -14 104q0 115 68 115h362q90 0 90 -63q0 -182 -71 -183h-52l21 -409l2 -637h61q72 -2 72 -66q-4 -182 -100 -182h-387q-37 2 -52 27q-14 29 -14 106z" />
<glyph unicode="&#xcd;" horiz-adv-x="686" d="M18 133q1 115 58 115h74v1046h-62q-41 2 -55 27q-14 29 -15 104q0 115 68 115h363q90 0 90 -63q0 -182 -72 -183h-51l20 -409l2 -637h62q72 -2 71 -66q-4 -182 -100 -182h-387q-37 2 -51 27q-14 29 -15 106zM223 1778l117 254l86 65l221 -123l-328 -352l-94 43z" />
<glyph unicode="&#xce;" horiz-adv-x="770" d="M47 1761l27 111l209 184l100 41l100 -41l209 -184l27 -111l-80 -65l-256 166l-256 -166zM119 133q0 115 57 115h74v1046h-62q-41 2 -53 27q-16 29 -16 104q0 115 67 115h363q90 0 90 -63q0 -182 -72 -183h-51l21 -409l2 -637h61q72 -2 72 -66q-4 -182 -101 -182h-387 q-37 2 -49 27q-16 29 -16 106z" />
<glyph unicode="&#xcf;" horiz-adv-x="862" d="M43 1949.5q0 147.5 147.5 147.5t147.5 -147.5t-147.5 -147.5t-147.5 147.5zM209 133q0 115 57 115h74v1046h-61q-41 2 -54 27q-16 29 -16 104q0 115 67 115h363q90 0 90 -63q0 -182 -72 -183h-51l21 -409l2 -637h61q72 -2 72 -66q-4 -182 -100 -182h-388q-37 2 -49 27 q-16 29 -16 106zM522 1949.5q0 147.5 147.5 147.5t147.5 -147.5t-147.5 -147.5t-147.5 147.5z" />
<glyph unicode="&#xd0;" horiz-adv-x="1169" d="M92 0v1538q312 35 449 35q223 0 337.5 -63.5t166 -230.5t51.5 -495q0 -455 -119 -636t-436 -181q-78 0 -449 33zM381 254q0 -23 27.5 -27t112.5 -4t120 9.5t64.5 33t39.5 90.5q20 131 21 406q0 567 -117 567q-178 0 -223 -7t-45 -40v-350h180q74 -4 74 -74 q0 -100 -12.5 -137t-63.5 -37h-178v-430z" />
<glyph unicode="&#xd1;" horiz-adv-x="1079" d="M76 49v1448q0 76 147 76q31 0 48.5 -2t44 -19.5t46.5 -50.5l367 -860l-12 858q0 74 147 74q61 0 84 -14.5t25 -59.5l33 -616v-840q0 -35 -2 -47q-8 -29 -80 -29q-133 0 -160 76l-404 850l2 -848q0 -37 -2 -49q-8 -29 -79 -29q-205 0 -205 82zM156 1876l51 104 q154 0 288 18.5t242.5 18.5t145.5 -21.5t37 -92.5l-33 -93h-93t-228.5 -20.5t-252 -20.5t-130 19.5t-27.5 87.5z" />
<glyph unicode="&#xd2;" horiz-adv-x="1181" d="M63 760q0 326 51.5 500t163 243.5t322.5 69.5t322.5 -69.5t162 -243t50.5 -500.5q0 -449 -115 -621t-420 -172t-421 172t-116 621zM219 1974l221 123l86 -65l117 -254l-2 -113l-94 -43zM389 718.5q0 -188.5 12.5 -315.5t33 -166.5t54.5 -39.5q180 0 236 36q20 14 39.5 47 t28 68t14.5 103q8 88 8 316t-11 360.5t-32.5 180.5t-56.5 48q-82 0 -132.5 -7.5t-89 -35t-57 -61t-31 -110.5t-14.5 -156t-2 -267.5z" />
<glyph unicode="&#xd3;" horiz-adv-x="1181" d="M47 760q0 326 51.5 500t163 243.5t322.5 69.5t322.5 -69.5t161.5 -243t50 -500.5q0 -449 -114.5 -621t-419.5 -172t-421 172t-116 621zM373 718.5q0 -188.5 12 -315.5t32.5 -166.5t55.5 -39.5q180 0 236 36q20 14 39.5 47t27.5 68t15 103q8 88 8 316t-11.5 360.5 t-33 180.5t-56.5 48q-82 0 -132 -7.5t-89 -35t-57.5 -61t-30.5 -110.5t-14 -156t-2 -267.5zM524 1778l117 254l86 65l221 -123l-327 -352l-95 43z" />
<glyph unicode="&#xd4;" horiz-adv-x="1193" d="M61 760q0 326 51.5 500t163 243.5t322.5 69.5t322.5 -69.5t162 -243t50.5 -500.5q0 -449 -115 -621t-420 -172t-421 172t-116 621zM260 1761l27 111l209 184l100 41l100 -41l209 -184l27 -111l-80 -65l-256 166l-256 -166zM387 718.5q0 -188.5 12.5 -315.5t33 -166.5 t54.5 -39.5q180 0 238 36q18 14 37.5 47t28 68t14.5 103q8 88 8 316t-11 360.5t-32.5 180.5t-56.5 48q-82 0 -132.5 -7.5t-89 -35t-57 -61t-31 -110.5t-14.5 -156t-2 -267.5z" />
<glyph unicode="&#xd5;" horiz-adv-x="1193" d="M61 760q0 326 51.5 500t163 243.5t322.5 69.5t322.5 -69.5t162 -243t50.5 -500.5q0 -449 -115 -621t-420 -172t-421 172t-116 621zM213 1876l51 104q154 0 288 18.5t242.5 18.5t145.5 -21.5t37 -92.5l-33 -93h-93t-228.5 -20.5t-252 -20.5t-130 19.5t-27.5 87.5z M387 718.5q0 -188.5 12.5 -315.5t33 -166.5t54.5 -39.5q180 0 238 36q18 14 37.5 47t28 68t14.5 103q8 88 8 316t-11 360.5t-32.5 180.5t-56.5 48q-82 0 -132.5 -7.5t-89 -35t-57 -61t-31 -110.5t-14.5 -156t-2 -267.5z" />
<glyph unicode="&#xd6;" horiz-adv-x="1200" d="M63 760q0 326 51.5 500t163 243.5t322.5 69.5t322.5 -69.5t162 -243t50.5 -500.5q0 -449 -115 -621t-420 -172t-421 172t-116 621zM211 1949.5q0 147.5 147.5 147.5t147.5 -147.5t-147.5 -147.5t-147.5 147.5zM389 718.5q0 -188.5 12.5 -315.5t33 -166.5t54.5 -39.5 q180 0 236 36q20 14 39.5 47t28 68t14.5 103q8 88 8 316t-11 360.5t-32.5 180.5t-56.5 48q-82 0 -132.5 -7.5t-89 -35t-57 -61t-31 -110.5t-14.5 -156t-2 -267.5zM690 1949.5q0 147.5 147.5 147.5t147.5 -147.5t-147.5 -147.5t-147.5 147.5z" />
<glyph unicode="&#xd7;" horiz-adv-x="874" d="M59 559l197 197l-174 174v47l133 131h49l170 -172l176 176h47l131 -133v-49l-174 -174l199 -197l-178 -180l-199 199l-196 -197z" />
<glyph unicode="&#xd8;" horiz-adv-x="1183" d="M55 725q0 281 24.5 431.5t91.5 239.5t164 120.5t257 31.5l76 -2l61 248h215v-219l-22 -92q115 -70 160.5 -236t45.5 -487q0 -449 -114.5 -621t-421.5 -172h-29l-61 -266h-279v66l66 262q-127 72 -180.5 243.5t-53.5 452.5zM387 700q0 -168 11.5 -292.5t31 -164.5 t51.5 -40q178 0 236 39q80 55 86 344v236.5t-11.5 292.5t-31 166t-53.5 42q-127 0 -170 -14.5t-63.5 -28.5t-39 -49t-26 -69t-13.5 -100.5t-7 -130t-1 -231.5z" />
<glyph unicode="&#xd9;" horiz-adv-x="1083" d="M66 758v676q0 88 25.5 113.5t105 25.5t108.5 -27.5t33 -132.5l29 -530q0 -518 39 -617q18 -43 49 -43q72 0 110.5 3t75.5 24.5t51.5 50.5t24.5 96q16 94 16 361v721q0 57 24.5 75.5t102.5 18.5t107.5 -24.5t31.5 -118.5l25 -551v-62q0 -317 -42 -503.5t-143.5 -266.5 t-289.5 -80q-274 0 -378.5 172t-104.5 619zM186 1974l222 123l86 -65l116 -254l-2 -113l-94 -43z" />
<glyph unicode="&#xda;" horiz-adv-x="1081" d="M53 758v676q0 88 25.5 113.5t105.5 25.5t109 -27.5t33 -132.5l28 -530q0 -518 39 -617q18 -43 49 -43q72 0 111 3t76 24.5t51 50.5t25 96q16 94 16 361v721q0 57 24.5 75.5t102.5 18.5t107.5 -24.5t31.5 -118.5l25 -551v-62q0 -317 -42 -503.5t-143.5 -266.5t-289.5 -80 q-274 0 -379 172t-105 619zM473 1778l117 254l86 65l221 -123l-328 -352l-94 43z" />
<glyph unicode="&#xdb;" horiz-adv-x="1097" d="M66 758v676q0 88 25.5 113.5t105 25.5t108.5 -27.5t33 -132.5l29 -530q0 -518 39 -617q18 -43 49 -43q72 0 110.5 3t75.5 24.5t51.5 50.5t24.5 96q16 94 16 361v721q0 57 24.5 75.5t102.5 18.5t107.5 -24.5t31.5 -118.5l25 -551v-62q0 -317 -42 -503.5t-143.5 -266.5 t-289.5 -80q-274 0 -378.5 172t-104.5 619zM211 1761l27 111l208 184l101 41l100 -41l209 -184l27 -111l-80 -65l-256 166l-256 -166z" />
<glyph unicode="&#xdc;" horiz-adv-x="1103" d="M66 758v676q0 88 25.5 113.5t105 25.5t108.5 -27.5t33 -132.5l29 -530q0 -518 39 -617q18 -43 49 -43q72 0 110.5 3t75.5 24.5t51.5 50.5t24.5 96q16 94 16 361v721q0 57 24.5 75.5t102.5 18.5t107.5 -24.5t31.5 -118.5l25 -551v-62q0 -317 -42 -503.5t-143.5 -266.5 t-289.5 -80q-274 0 -378.5 172t-104.5 619zM164 1949.5q0 147.5 147.5 147.5t147.5 -147.5t-147.5 -147.5t-147.5 147.5zM643 1949.5q0 147.5 147.5 147.5t147.5 -147.5t-147.5 -147.5t-147.5 147.5z" />
<glyph unicode="&#xdd;" horiz-adv-x="1150" d="M29 1526q0 47 135 47t166 -76l280 -489l244 495q16 41 45 55.5t90 14.5q139 0 139 -51q0 -12 -6 -25l-399 -782v-672q0 -35 -2 -47q-8 -29 -80 -29q-158 0 -158 78v670l-446 784q-8 15 -8 27zM512 1778l117 254l86 65l221 -123l-328 -352l-94 43z" />
<glyph unicode="&#xde;" horiz-adv-x="923" d="M94 0v1546q0 33 74 33t136.5 -10t62.5 -23v-262h98q248 0 337 -109.5t89 -416.5t-70.5 -431t-222.5 -124q-57 0 -231 22v-237q0 -8 -3.5 -9.5t-6.5 -4.5t-9 -3l-31 -4h-24q-68 0 -133.5 10.5t-65.5 22.5zM367 399h196q23 0 28 87t5 282t-27.5 257t-103.5 62h-98v-688z " />
<glyph unicode="&#xdf;" horiz-adv-x="1243" d="M88 -143v1159q0 170 20.5 271.5t76 163.5t139.5 83.5t227 21.5q205 0 301 -73q106 -82 106 -297q0 -147 -69 -228q-33 -39 -66 -69q-82 -70 -82 -125q0 -33 36 -53.5t58.5 -31.5t65.5 -32q154 -66 228.5 -145.5t74.5 -157.5q0 -170 -90 -273.5t-244.5 -103.5t-242.5 41 t-148 117v41l111 108h16q113 -90 215 -90q57 0 86 33t29 72t-33 63.5t-89 52t-69 33.5q-104 51 -176.5 128t-72.5 162t24.5 143.5t59 94t71.5 66.5q84 76 84 168t-48 121t-155.5 29t-136 -70t-28.5 -264l4 -1159v-13q0 -8 -3 -9t-6.5 -4t-9.5 -3l-30 -4h-25q-68 0 -138.5 10 t-70.5 23z" />
<glyph unicode="&#xe0;" d="M63 1450l222 123l86 -66l116 -254l-2 -112l-94 -43zM72 328q0 166 161 227l293 76q-2 133 -26.5 172t-106.5 39t-141 -27l-72 -29h-2q-18 -10 -33 17q-37 78 -36.5 122t7.5 49t7 7q102 68 265 68t251 -43t128 -157t40 -337l-4 -512q0 -12 -4 -16q-8 -16 -78 -17 q-127 0 -127 33l-33 63q-106 -96 -189 -96t-134.5 11.5t-92.5 49.5t-57 109.5t-16 190.5zM299 324q0 -147 86 -156q59 0 86 20q57 39 57 291q-106 -14 -167.5 -58t-61.5 -97z" />
<glyph unicode="&#xe1;" d="M72 328q0 166 161 227l293 76q-2 133 -26.5 172t-106.5 39t-141 -27l-72 -29h-2q-18 -10 -33 17q-37 78 -36.5 122t7.5 49t7 7q102 68 265 68t251 -43t128 -157t40 -337l-4 -512q0 -12 -4 -16q-8 -16 -78 -17q-127 0 -127 33l-33 63q-106 -96 -189 -96t-134.5 11.5 t-92.5 49.5t-57 109.5t-16 190.5zM299 324q0 -147 86 -156q59 0 86 20q57 39 57 291q-106 -14 -167.5 -58t-61.5 -97zM354 1253l117 254l86 66l221 -123l-327 -352l-95 43z" />
<glyph unicode="&#xe2;" d="M72 328q0 166 161 227l293 76q-2 133 -26.5 172t-106.5 39t-141 -27l-72 -29h-2q-18 -10 -33 17q-37 78 -36.5 122t7.5 49t7 7q102 68 265 68t251 -43t128 -157t40 -337l-4 -512q0 -12 -4 -16q-8 -16 -78 -17q-127 0 -127 33l-33 63q-106 -96 -189 -96t-134.5 11.5 t-92.5 49.5t-57 109.5t-16 190.5zM109 1237l26 111l209 184l100 41l101 -41l209 -184l26 -111l-80 -66l-256 166l-256 -166zM299 324q0 -147 86 -156q59 0 86 20q57 39 57 291q-106 -14 -167.5 -58t-61.5 -97z" />
<glyph unicode="&#xe3;" d="M63 1352l52 104q154 0 288 18.5t242.5 18.5t145 -21.5t36.5 -93.5l-32 -92h-93t-228.5 -20.5t-252 -20.5t-130.5 19.5t-28 87.5zM72 328q0 166 161 227l293 76q-2 133 -26.5 172t-106.5 39t-141 -27l-72 -29h-2q-18 -10 -33 17q-37 78 -36.5 122t7.5 49t7 7 q102 68 265 68t251 -43t128 -157t40 -337l-4 -512q0 -12 -4 -16q-8 -16 -78 -17q-127 0 -127 33l-33 63q-106 -96 -189 -96t-134.5 11.5t-92.5 49.5t-57 109.5t-16 190.5zM299 324q0 -147 86 -156q59 0 86 20q57 39 57 291q-106 -14 -167.5 -58t-61.5 -97z" />
<glyph unicode="&#xe4;" d="M59 1425.5q0 147.5 147.5 147.5t147.5 -147.5t-147.5 -147.5t-147.5 147.5zM72 328q0 166 161 227l293 76q-2 133 -26.5 172t-106.5 39t-141 -27l-72 -29h-2q-18 -10 -33 17q-37 78 -36.5 122t7.5 49t7 7q102 68 265 68t251 -43t128 -157t40 -337l-4 -512q0 -12 -4 -16 q-8 -16 -78 -17q-127 0 -127 33l-33 63q-106 -96 -189 -96t-134.5 11.5t-92.5 49.5t-57 109.5t-16 190.5zM299 324q0 -147 86 -156q59 0 86 20q57 39 57 291q-106 -14 -167.5 -58t-61.5 -97zM539 1425.5q0 147.5 147.5 147.5t147.5 -147.5t-147.5 -147.5t-147.5 147.5z" />
<glyph unicode="&#xe5;" d="M72 328q0 166 161 227l293 76q-2 133 -26.5 172t-106.5 39t-141 -27l-72 -29h-2q-18 -10 -33 17q-37 78 -36.5 122t7.5 49t7 7q102 68 265 68t251 -43t128 -157t40 -337l-4 -512q0 -12 -4 -16q-8 -16 -78 -17q-127 0 -127 33l-33 63q-106 -96 -189 -96t-134.5 11.5 t-92.5 49.5t-57 109.5t-16 190.5zM248 1343.5q0 196.5 196.5 196.5t196.5 -196.5t-196.5 -196.5t-196.5 196.5zM299 324q0 -147 86 -156q59 0 86 20q57 39 57 291q-106 -14 -167.5 -58t-61.5 -97zM373 1343.5q0 -71.5 71.5 -71.5t71.5 71.5t-71.5 71.5t-71.5 -71.5z" />
<glyph unicode="&#xe6;" horiz-adv-x="1396" d="M80 328q0 166 162 227l293 76q-2 133 -27 172t-107 39t-141 -27h-82l-49 164q92 70 272.5 70t268.5 -58q80 57 244.5 57.5t243.5 -42.5t116 -160t37 -332v-24.5t-48.5 -22.5t-115.5 -10h-316q4 -240 37 -273q16 -16 58 -16q309 0 372 29q14 4 23.5 -16.5t9.5 -96.5 t-33 -84q-83 -33 -372 -33q-231 0 -314 133q-61 -61 -84 -80q-61 -53 -146 -53t-136 11.5t-92 49.5t-57.5 109.5t-16.5 190.5zM307 324q0 -147 86 -156q59 0 86 20q57 39 58 291q-106 -14 -168 -58t-62 -97zM831 621h207q-8 238 -47 237q-70 0 -115 -20.5t-45 -57.5v-159z " />
<glyph unicode="&#xe7;" horiz-adv-x="778" d="M35 485.5q0 249.5 40 363.5t128 157t256 43t260 -70h2q16 -8 16 -38t-16 -79q-27 -88 -57 -76h-2l-72 29q-59 27 -144.5 27t-109 -70t-23.5 -268.5t30 -267t114 -68.5q121 0 188.5 14.5t69.5 14.5q14 4 23.5 -16.5t9.5 -96.5t-33 -84q-113 -31 -238 -33l-10 -63 q207 -39 207 -217q0 -31 -6 -68q-39 -205 -215 -205q-33 0 -70 6l27 152q12 -2 22 -2q68 0 82 76q2 14 2 26q0 66 -76 78l-116 21l34 202q-182 20 -252.5 141.5t-70.5 371z" />
<glyph unicode="&#xe8;" horiz-adv-x="929" d="M76 512q0 221 39 337t117.5 158t232 42t232.5 -43t116 -160t37 -332v-24.5t-48 -22.5t-116 -10h-315q4 -240 35 -273q18 -16 59 -16q268 0 366 27q4 2 7 2q14 4 23 -16.5t9 -96.5t-32 -84q-84 -33 -373 -33q-219 0 -304 119t-85 426zM147 1450l222 123l86 -66l116 -254 l-2 -112l-94 -43zM371 621h207q-8 238 -48 237q-70 0 -114.5 -20.5t-44.5 -57.5v-159z" />
<glyph unicode="&#xe9;" horiz-adv-x="929" d="M76 512q0 221 39 337t117.5 158t232 42t232.5 -43t116 -160t37 -332v-24.5t-48 -22.5t-116 -10h-315q4 -240 35 -273q18 -16 59 -16q268 0 366 27q4 2 7 2q14 4 23 -16.5t9 -96.5t-32 -84q-84 -33 -373 -33q-219 0 -304 119t-85 426zM371 621h207q-8 238 -48 237 q-70 0 -114.5 -20.5t-44.5 -57.5v-159zM381 1253l117 254l86 66l221 -123l-328 -352l-94 43z" />
<glyph unicode="&#xea;" horiz-adv-x="929" d="M76 512q0 221 39 337t117.5 158t232 42t232.5 -43t116 -160t37 -332v-24.5t-48 -22.5t-116 -10h-315q4 -240 35 -273q18 -16 59 -16q268 0 366 27q4 2 7 2q14 4 23 -16.5t9 -96.5t-32 -84q-84 -33 -373 -33q-219 0 -304 119t-85 426zM129 1237l27 111l209 184l100 41 l100 -41l209 -184l27 -111l-80 -66l-256 166l-256 -166zM371 621h207q-8 238 -48 237q-70 0 -114.5 -20.5t-44.5 -57.5v-159z" />
<glyph unicode="&#xeb;" horiz-adv-x="929" d="M76 512q0 221 39 337t117.5 158t232 42t232.5 -43t116 -160t37 -332v-24.5t-48 -22.5t-116 -10h-315q4 -240 35 -273q18 -16 59 -16q268 0 366 27q4 2 7 2q14 4 23 -16.5t9 -96.5t-32 -84q-84 -33 -373 -33q-219 0 -304 119t-85 426zM78 1425.5q0 147.5 147.5 147.5 t147.5 -147.5t-147.5 -147.5t-147.5 147.5zM371 621h207q-8 238 -48 237q-70 0 -114.5 -20.5t-44.5 -57.5v-159zM557 1425.5q0 147.5 147.5 147.5t147.5 -147.5t-147.5 -147.5t-147.5 147.5z" />
<glyph unicode="&#xec;" horiz-adv-x="466" d="M-135 1450l221 123l86 -66l117 -254l-2 -112l-94 -43zM96 0v1016q0 33 74 33t139.5 -10.5t65.5 -22.5v-1016q0 -12 -2 -16q-10 -16 -78 -16.5t-133.5 10t-65.5 22.5z" />
<glyph unicode="&#xed;" horiz-adv-x="466" d="M96 0v1016q0 33 74 33t139.5 -10.5t65.5 -22.5v-1016q0 -12 -2 -16q-10 -16 -78 -16.5t-133.5 10t-65.5 22.5zM172 1253l117 254l86 66l221 -123l-328 -352l-94 43z" />
<glyph unicode="&#xee;" horiz-adv-x="466" d="M-102 1237l26 111l209 184l100 41l101 -41l209 -184l26 -111l-80 -66l-256 166l-256 -166zM96 0v1016q0 33 74 33t139.5 -10.5t65.5 -22.5v-1016q0 -12 -2 -16q-10 -16 -78 -16.5t-133.5 10t-65.5 22.5z" />
<glyph unicode="&#xef;" horiz-adv-x="466" d="M-154 1425.5q0 147.5 147.5 147.5t147.5 -147.5t-147.5 -147.5t-147.5 147.5zM96 0v1016q0 33 74 33t139.5 -10.5t65.5 -22.5v-1016q0 -12 -2 -16q-10 -16 -78 -16.5t-133.5 10t-65.5 22.5zM326 1425.5q0 147.5 147.5 147.5t147.5 -147.5t-147.5 -147.5t-147.5 147.5z " />
<glyph unicode="&#xf0;" horiz-adv-x="987" d="M59 520q0 223 39 339t124 159t247 43l49 -21q-6 49 -47 150q-176 -72 -258 -72q-33 0 -50.5 18.5t-29.5 63.5l23 115q117 31 225 74l-47 79l16 41l225 64l37 -86q131 55 208 55t100 -86l-7 -96q-94 -25 -213 -70q178 -418 178.5 -748.5t-89 -452.5t-320.5 -122 t-320.5 122t-89.5 431zM354 520q0 -215 28 -266t146 -51q64 0 64 317q0 207 -27.5 258t-146.5 51q-63 0 -64 -309z" />
<glyph unicode="&#xf1;" horiz-adv-x="999" d="M92 0v1016q0 33 82 33q129 0 148 -33q0 -4 2 -4l38 -78q172 115 256 115q152 0 222.5 -94.5t70.5 -331.5v-623q0 -12 -2 -16q-10 -16 -78.5 -16.5t-140.5 10t-72 22.5l-2 623q0 229 -32 229q-74 0 -197 -74v-778q0 -12 -2 -16q-10 -16 -78.5 -16.5t-141.5 10t-73 22.5z M117 1352l51 104q154 0 288 18.5t242.5 18.5t145.5 -21.5t37 -93.5l-33 -92h-93t-228.5 -20.5t-252 -20.5t-130 19.5t-27.5 87.5z" />
<glyph unicode="&#xf2;" horiz-adv-x="970" d="M76 512q0 223 39 338t123 157t247.5 42t247.5 -42t123 -157t39 -338q0 -307 -88 -426t-321.5 -119t-321.5 119t-88 426zM121 1450l221 123l86 -66l117 -254l-2 -112l-94 -43zM354 512q0 -344 66 -344q90 0 133 29q23 16 31 59q16 86 16 256q0 340 -65 340 q-123 0 -152 -56.5t-29 -283.5z" />
<glyph unicode="&#xf3;" horiz-adv-x="970" d="M76 512q0 223 39 338t123 157t247.5 42t247.5 -42t123 -157t39 -338q0 -307 -88 -426t-321.5 -119t-321.5 119t-88 426zM354 512q0 -344 66 -344q90 0 133 29q23 16 31 59q16 86 16 256q0 340 -65 340q-123 0 -152 -56.5t-29 -283.5zM428 1253l117 254l86 66l221 -123 l-328 -352l-94 43z" />
<glyph unicode="&#xf4;" horiz-adv-x="970" d="M76 512q0 223 39 338t123 157t247.5 42t247.5 -42t123 -157t39 -338q0 -307 -88 -426t-321.5 -119t-321.5 119t-88 426zM150 1237l26 111l209 184l100 41l101 -41l209 -184l26 -111l-80 -66l-256 166l-256 -166zM354 512q0 -344 66 -344q90 0 133 29q23 16 31 59 q16 86 16 256q0 340 -65 340q-123 0 -152 -56.5t-29 -283.5z" />
<glyph unicode="&#xf5;" horiz-adv-x="970" d="M76 512q0 223 39 338t123 157t247.5 42t247.5 -42t123 -157t39 -338q0 -307 -88 -426t-321.5 -119t-321.5 119t-88 426zM102 1352l52 104q154 0 287.5 18.5t242.5 18.5t145.5 -21.5t36.5 -93.5l-32 -92h-93t-229 -20.5t-252 -20.5t-130 19.5t-28 87.5zM354 512 q0 -344 66 -344q90 0 133 29q23 16 31 59q16 86 16 256q0 340 -65 340q-123 0 -152 -56.5t-29 -283.5z" />
<glyph unicode="&#xf6;" horiz-adv-x="970" d="M76 512q0 223 39 338t123 157t247.5 42t247.5 -42t123 -157t39 -338q0 -307 -88 -426t-321.5 -119t-321.5 119t-88 426zM98 1425.5q0 147.5 147.5 147.5t147.5 -147.5t-147.5 -147.5t-147.5 147.5zM354 512q0 -344 66 -344q90 0 133 29q23 16 31 59q16 86 16 256 q0 340 -65 340q-123 0 -152 -56.5t-29 -283.5zM578 1425.5q0 147.5 147 147.5t147 -147.5t-147 -147.5t-147 147.5z" />
<glyph unicode="&#xf7;" horiz-adv-x="774" d="M31 633v254h680l32 -33v-186l-34 -35h-678zM240 383q0 147 147.5 147t147.5 -147t-147.5 -147t-147.5 147zM240 1148.5q0 147.5 147.5 147.5t147.5 -147.5t-147.5 -147.5t-147.5 147.5z" />
<glyph unicode="&#xf8;" horiz-adv-x="913" d="M47 492.5q0 330.5 79 441t292 117.5l106 424h215v-220l-57 -237q100 -43 142 -159t42 -347q0 -307 -88 -426t-321 -119h-23l-61 -266h-279v66l72 284q-119 111 -119 441.5zM326 512q0 -344 65 -344q90 0 133 29q23 16 31 59q16 86 16 256q0 344 -65 344 q-123 0 -151.5 -57.5t-28.5 -286.5z" />
<glyph unicode="&#xf9;" horiz-adv-x="997" d="M86 393v623q0 33 75 33t146.5 -10.5t71.5 -22.5l2 -623q0 -229 33 -229q74 0 196 74v778q0 33 75 33t147.5 -10.5t72.5 -22.5v-1016q0 -12 -4 -16q-8 -16 -105.5 -16.5t-119.5 32.5l-43 63q-143 -96 -254 -96q-152 0 -222.5 94.5t-70.5 331.5zM117 1450l221 123l86 -66 l117 -254l-2 -112l-95 -43z" />
<glyph unicode="&#xfa;" horiz-adv-x="997" d="M86 393v623q0 33 75 33t146.5 -10.5t71.5 -22.5l2 -623q0 -229 33 -229q74 0 196 74v778q0 33 75 33t147.5 -10.5t72.5 -22.5v-1016q0 -12 -4 -16q-8 -16 -105.5 -16.5t-119.5 32.5l-43 63q-143 -96 -254 -96q-152 0 -222.5 94.5t-70.5 331.5zM453 1253l116 254l86 66 l222 -123l-328 -352l-94 43z" />
<glyph unicode="&#xfb;" horiz-adv-x="997" d="M86 393v623q0 33 75 33t146.5 -10.5t71.5 -22.5l2 -623q0 -229 33 -229q74 0 196 74v778q0 33 75 33t147.5 -10.5t72.5 -22.5v-1016q0 -12 -4 -16q-8 -16 -105.5 -16.5t-119.5 32.5l-43 63q-143 -96 -254 -96q-152 0 -222.5 94.5t-70.5 331.5zM162 1237l26 111l209 184 l101 41l100 -41l209 -184l27 -111l-80 -66l-256 166l-256 -166z" />
<glyph unicode="&#xfc;" horiz-adv-x="997" d="M86 393v623q0 33 75 33t146.5 -10.5t71.5 -22.5l2 -623q0 -229 33 -229q74 0 196 74v778q0 33 75 33t147.5 -10.5t72.5 -22.5v-1016q0 -12 -4 -16q-8 -16 -105.5 -16.5t-119.5 32.5l-43 63q-143 -96 -254 -96q-152 0 -222.5 94.5t-70.5 331.5zM111 1425.5 q0 147.5 147.5 147.5t147.5 -147.5t-147.5 -147.5t-147.5 147.5zM590 1425.5q0 147.5 147.5 147.5t147.5 -147.5t-147.5 -147.5t-147.5 147.5z" />
<glyph unicode="&#xfd;" horiz-adv-x="942" d="M43 1022q0 27 75 27t139.5 -10.5t66.5 -22.5l182 -701l160 701q8 33 65 33q113 0 150 -12.5t37 -18.5l-410 -1477q-8 -33 -65.5 -33t-94.5 5q-80 10 -76 28q0 6 2 10l105 449l-334 1012v4q-2 4 -2 6zM436 1253l117 254l86 66l221 -123l-328 -352l-94 43z" />
<glyph unicode="&#xfe;" horiz-adv-x="905" d="M92 -455v1995q0 33 73 33t120 -9.5t47 -23.5l26 -491h107q248 0 337 -110t89 -417t-70.5 -431t-222.5 -124q-55 0 -229 23v-447q0 -12 -4 -18q-8 -14 -77 -14t-132.5 10t-63.5 24zM369 164h194q23 0 28 87t5 281.5t-27.5 257t-103.5 62.5h-96v-688z" />
<glyph unicode="&#xff;" horiz-adv-x="942" d="M43 1022q0 27 75 27t139.5 -10.5t66.5 -22.5l182 -701l160 701q8 33 65 33q113 0 150 -12.5t37 -18.5l-410 -1477q-8 -33 -65.5 -33t-94.5 5q-80 10 -76 28q0 6 2 10l105 449l-334 1012v4q-2 4 -2 6zM84 1425.5q0 147.5 147.5 147.5t147.5 -147.5t-147.5 -147.5 t-147.5 147.5zM563 1425.5q0 147.5 147.5 147.5t147.5 -147.5t-147.5 -147.5t-147.5 147.5z" />
<glyph unicode="&#x152;" horiz-adv-x="1665" d="M76 760q0 326 51 491.5t161.5 227t323.5 61.5h969q88 -2 88 -65q-2 -55 -6 -87t-25.5 -63t-62.5 -31h-492q47 -127 60 -362h393q82 0 82 -74q0 -100 -12.5 -137t-63.5 -37h-397q-6 -283 -60 -436h529q49 -2 67.5 -19.5t18.5 -52.5q0 -100 -18.5 -138t-73.5 -38h-721 q-145 -33 -275 -33q-305 0 -420.5 172t-115.5 621zM401 718.5q0 -188.5 12.5 -315.5t33 -166.5t55.5 -39.5q180 0 235 36q20 14 40 47t28 68t14 103q8 88 8 316t-11 360.5t-32.5 180.5t-56.5 48q-82 0 -132 -7.5t-89 -35t-57.5 -61t-30.5 -110.5t-14.5 -156t-2.5 -267.5z " />
<glyph unicode="&#x153;" horiz-adv-x="1466" d="M82 512q0 223 39 338t123 157t252 42t252 -50q80 49 239.5 49.5t238.5 -42.5t115.5 -160t36.5 -332v-24.5t-48 -22.5t-116 -10h-313l-2 -6q4 -233 35 -267q18 -16 59 -16q268 0 367 27q4 2 6 2q14 4 23.5 -16.5t9.5 -96.5t-33 -84q-84 -33 -373 -33q-158 0 -243 60 q-90 -59 -258 -60q-233 0 -321.5 119t-88.5 426zM360 512q0 -344 66 -344q80 0 113.5 16.5t49 69.5t17.5 178q-2 25 -2 80v74q-4 266 -63 266q-123 0 -152 -56.5t-29 -283.5zM899 621h207q-8 238 -47 237q-70 0 -115 -20.5t-45 -57.5v-159z" />
<glyph unicode="&#x178;" horiz-adv-x="1161" d="M29 1526q0 47 135 47t166 -76l280 -489l244 495q16 41 45 55.5t90 14.5q139 0 139 -51q0 -12 -6 -25l-399 -782v-672q0 -35 -2 -47q-8 -29 -80 -29q-158 0 -158 78v670l-446 784q-8 15 -8 27zM213 1949.5q0 147.5 147.5 147.5t147.5 -147.5t-147.5 -147.5t-147.5 147.5z M692 1949.5q0 147.5 147.5 147.5t147.5 -147.5t-147.5 -147.5t-147.5 147.5z" />
<glyph unicode="&#x2c6;" horiz-adv-x="776" d="M53 1237l27 111l209 184l100 41l100 -41l209 -184l27 -111l-80 -66l-256 166l-256 -166z" />
<glyph unicode="&#x2dc;" horiz-adv-x="903" d="M72 1352l51 104q154 0 288 18.5t242.5 18.5t145.5 -21.5t37 -93.5l-33 -92h-93t-228.5 -20.5t-252 -20.5t-130 19.5t-27.5 87.5z" />
<glyph unicode="&#x2000;" horiz-adv-x="1048" />
<glyph unicode="&#x2001;" horiz-adv-x="2097" />
<glyph unicode="&#x2002;" horiz-adv-x="1048" />
<glyph unicode="&#x2003;" horiz-adv-x="2097" />
<glyph unicode="&#x2004;" horiz-adv-x="699" />
<glyph unicode="&#x2005;" horiz-adv-x="524" />
<glyph unicode="&#x2006;" horiz-adv-x="349" />
<glyph unicode="&#x2007;" horiz-adv-x="349" />
<glyph unicode="&#x2008;" horiz-adv-x="262" />
<glyph unicode="&#x2009;" horiz-adv-x="419" />
<glyph unicode="&#x200a;" horiz-adv-x="116" />
<glyph unicode="&#x2010;" horiz-adv-x="784" d="M92 664v221h565l33 -33v-221h-565z" />
<glyph unicode="&#x2011;" horiz-adv-x="784" d="M92 664v221h565l33 -33v-221h-565z" />
<glyph unicode="&#x2012;" horiz-adv-x="784" d="M92 664v221h565l33 -33v-221h-565z" />
<glyph unicode="&#x2013;" horiz-adv-x="1138" d="M92 664v221h922l33 -33v-221h-922z" />
<glyph unicode="&#x2014;" horiz-adv-x="1525" d="M92 664v221h1309l33 -33v-221h-1309z" />
<glyph unicode="&#x2018;" horiz-adv-x="444" d="M20 1147l226 426l102 -19l31 -108l-47 -275l-66 -86z" />
<glyph unicode="&#x2019;" horiz-adv-x="442" d="M66 1212l47 275l65 86l246 -62l-225 -426l-103 19z" />
<glyph unicode="&#x201a;" horiz-adv-x="403" d="M80 -86l37 92q-35 35 -35 109q0 147 147.5 147t147.5 -147q0 -80 -39 -115l-205 -262l-53 35v141z" />
<glyph unicode="&#x201c;" horiz-adv-x="921" d="M53 1147l226 426l102 -19l31 -108l-47 -275l-66 -86zM483 1147l226 426l102 -19l31 -108l-47 -275l-66 -86z" />
<glyph unicode="&#x201d;" horiz-adv-x="921" d="M80 1212l47 275l66 86l245 -62l-225 -426l-102 19zM510 1212l47 275l66 86l245 -62l-225 -426l-102 19z" />
<glyph unicode="&#x201e;" horiz-adv-x="937" d="M88 -86l37 92q-35 35 -35 109q0 147 147.5 147t147.5 -147q0 -80 -39 -115l-205 -262l-53 35v141zM580 -86l36 92q-34 35 -34 109q0 147 147.5 147t147.5 -147q0 -80 -39 -115l-205 -262l-53 35v141z" />
<glyph unicode="&#x2022;" horiz-adv-x="536" d="M72 604.5q0 196.5 196.5 196.5t196.5 -196.5t-196.5 -196.5t-196.5 196.5z" />
<glyph unicode="&#x2026;" horiz-adv-x="1454" d="M88 114.5q0 147.5 147.5 147.5t147.5 -147.5t-147.5 -147.5t-147.5 147.5zM580 114.5q0 147.5 147 147.5t147 -147.5t-147 -147.5t-147 147.5zM1071 114.5q0 147.5 147.5 147.5t147.5 -147.5t-147.5 -147.5t-147.5 147.5z" />
<glyph unicode="&#x202f;" horiz-adv-x="419" />
<glyph unicode="&#x2039;" horiz-adv-x="686" d="M18 786l41 101l349 340l110 26l66 -79l-330 -388l362 -387l-65 -80l-111 27l-381 340z" />
<glyph unicode="&#x203a;" horiz-adv-x="686" d="M70 399l362 387l-330 388l66 79l111 -26l348 -340l41 -101l-41 -100l-381 -340l-111 -27z" />
<glyph unicode="&#x205f;" horiz-adv-x="524" />
<glyph unicode="&#x20ac;" horiz-adv-x="1134" d="M47 434v221h844l33 -32v-222h-404q14 -106 53 -143t123 -37t191.5 10.5t111.5 10.5q51 0 51.5 -65.5t-1.5 -98.5q-8 -74 -66 -84q-182 -27 -270 -27q-238 0 -355.5 98.5t-156.5 335.5h-121zM47 872v222h148q33 272 150.5 375.5t359 103.5t344.5 -70q20 -14 20 -34.5 t-19.5 -77t-37 -80t-36 -23.5t-28.5 2q-154 31 -272 31q-70 0 -107 -54.5t-51 -172.5h373l33 -33v-221h-844z" />
<glyph unicode="&#x2122;" horiz-adv-x="1431" d="M70 1399v141h518l33 -33v-141h-172l2 -612h-175l-32 32v580h-142zM711 786v754h188l33 -33l94 -235l109 268h149l33 -33l22 -336v-417h-172l-32 32v426l-68 -133h-90l-59 121v-446h-175z" />
<glyph unicode="&#x25fc;" horiz-adv-x="1044" d="M0 0v1044h1044v-1044h-1044z" />
</font>
</defs>
</svg>
